<mxfile host="app.diagrams.net" modified="2023-02-05T12:24:50.376Z" agent="5.0 (Windows)" etag="RlaZ81KXbGYhfX1eBftQ" version="20.8.16" type="github">
  <diagram name="Page-1" id="S8-5whWWjBByGaZXZ5yN">
    <mxGraphModel dx="1173" dy="1796" grid="1" gridSize="10" guides="1" tooltips="1" connect="1" arrows="1" fold="1" page="1" pageScale="1" pageWidth="827" pageHeight="1169" math="0" shadow="0">
      <root>
        <mxCell id="0" />
        <mxCell id="1" parent="0" />
        <mxCell id="oR9qkToTt6fAtuaVTWsN-264" style="edgeStyle=none;rounded=0;orthogonalLoop=1;jettySize=auto;html=1;exitX=1;exitY=0.3333333333333333;exitDx=0;exitDy=0;exitPerimeter=0;entryX=0;entryY=0.5;entryDx=0;entryDy=0;fontSize=14;endArrow=none;endFill=0;" parent="1" source="Xd1Pg4iGhiYPtQFeeaUK-61" target="oR9qkToTt6fAtuaVTWsN-95" edge="1">
          <mxGeometry relative="1" as="geometry" />
        </mxCell>
        <mxCell id="oR9qkToTt6fAtuaVTWsN-265" style="edgeStyle=none;rounded=0;orthogonalLoop=1;jettySize=auto;html=1;exitX=1;exitY=0.3333333333333333;exitDx=0;exitDy=0;exitPerimeter=0;entryX=0;entryY=0.5;entryDx=0;entryDy=0;fontSize=14;endArrow=none;endFill=0;" parent="1" source="Xd1Pg4iGhiYPtQFeeaUK-61" target="vN8HBcDRqM89FRdapi-8-54" edge="1">
          <mxGeometry relative="1" as="geometry" />
        </mxCell>
        <mxCell id="Xd1Pg4iGhiYPtQFeeaUK-61" value="Admin" style="html=1;overflow=block;blockSpacing=1;shape=umlActor;labelPosition=center;verticalLabelPosition=bottom;verticalAlign=top;whiteSpace=nowrap;fontSize=16.7;fontColor=#333333;align=center;spacing=0;strokeColor=#5e5e5e;strokeOpacity=100;rounded=1;absoluteArcSize=1;arcSize=9;strokeWidth=2.3;lucidId=TCmtfz8hAuSR;" parent="1" vertex="1">
          <mxGeometry x="185" y="3490" width="60" height="135" as="geometry" />
        </mxCell>
        <mxCell id="oR9qkToTt6fAtuaVTWsN-203" style="edgeStyle=none;rounded=0;orthogonalLoop=1;jettySize=auto;html=1;exitX=1;exitY=0.3333333333333333;exitDx=0;exitDy=0;exitPerimeter=0;entryX=0.032;entryY=0.371;entryDx=0;entryDy=0;entryPerimeter=0;fontSize=18;endArrow=none;endFill=0;" parent="1" source="Xd1Pg4iGhiYPtQFeeaUK-102" target="vN8HBcDRqM89FRdapi-8-1" edge="1">
          <mxGeometry relative="1" as="geometry" />
        </mxCell>
        <mxCell id="oR9qkToTt6fAtuaVTWsN-204" style="edgeStyle=none;rounded=0;orthogonalLoop=1;jettySize=auto;html=1;exitX=1;exitY=0.3333333333333333;exitDx=0;exitDy=0;exitPerimeter=0;entryX=0;entryY=0.5;entryDx=0;entryDy=0;fontSize=18;endArrow=none;endFill=0;" parent="1" source="Xd1Pg4iGhiYPtQFeeaUK-102" target="vN8HBcDRqM89FRdapi-8-11" edge="1">
          <mxGeometry relative="1" as="geometry" />
        </mxCell>
        <mxCell id="oR9qkToTt6fAtuaVTWsN-212" style="edgeStyle=none;rounded=0;orthogonalLoop=1;jettySize=auto;html=1;exitX=1;exitY=1;exitDx=0;exitDy=0;exitPerimeter=0;entryX=0;entryY=0.5;entryDx=0;entryDy=0;fontSize=18;endArrow=none;endFill=0;" parent="1" source="Xd1Pg4iGhiYPtQFeeaUK-102" target="oR9qkToTt6fAtuaVTWsN-118" edge="1">
          <mxGeometry relative="1" as="geometry" />
        </mxCell>
        <mxCell id="Xd1Pg4iGhiYPtQFeeaUK-102" value="&lt;div&gt;Organizateur&lt;/div&gt;&lt;div&gt;&lt;br&gt;&lt;/div&gt;" style="html=1;overflow=block;blockSpacing=1;shape=umlActor;labelPosition=center;verticalLabelPosition=bottom;verticalAlign=top;whiteSpace=nowrap;fontSize=16.7;fontColor=#333333;align=center;spacing=0;strokeColor=#5e5e5e;strokeOpacity=100;rounded=1;absoluteArcSize=1;arcSize=9;strokeWidth=2.3;lucidId=wAitfE4UTxwo;" parent="1" vertex="1">
          <mxGeometry x="100" y="2170" width="60" height="135" as="geometry" />
        </mxCell>
        <mxCell id="oR9qkToTt6fAtuaVTWsN-256" style="edgeStyle=none;rounded=0;orthogonalLoop=1;jettySize=auto;html=1;exitX=1;exitY=1;exitDx=0;exitDy=0;entryX=1;entryY=0;entryDx=0;entryDy=0;dashed=1;fontSize=14;endArrow=classic;endFill=1;" parent="1" source="vN8HBcDRqM89FRdapi-8-1" target="oR9qkToTt6fAtuaVTWsN-167" edge="1">
          <mxGeometry relative="1" as="geometry">
            <Array as="points">
              <mxPoint x="1340" y="2100" />
            </Array>
          </mxGeometry>
        </mxCell>
        <mxCell id="oR9qkToTt6fAtuaVTWsN-257" value="&amp;lt;&amp;lt;include&amp;gt;&amp;gt;" style="edgeLabel;html=1;align=center;verticalAlign=middle;resizable=0;points=[];fontSize=14;" parent="oR9qkToTt6fAtuaVTWsN-256" vertex="1" connectable="0">
          <mxGeometry x="0.0142" y="-4" relative="1" as="geometry">
            <mxPoint as="offset" />
          </mxGeometry>
        </mxCell>
        <mxCell id="vN8HBcDRqM89FRdapi-8-1" value="&lt;font style=&quot;font-size: 18px;&quot;&gt;Consulter les statistiques d&#39;application &lt;/font&gt;" style="html=1;overflow=block;blockSpacing=1;whiteSpace=wrap;ellipse;fontSize=13;spacing=3.8;strokeColor=#5e5e5e;strokeOpacity=100;rounded=1;absoluteArcSize=1;arcSize=9;strokeWidth=2.3;lucidId=.BitsejxpJ_f;" parent="1" vertex="1">
          <mxGeometry x="575" y="1970" width="214" height="90" as="geometry" />
        </mxCell>
        <mxCell id="oR9qkToTt6fAtuaVTWsN-255" style="edgeStyle=none;rounded=0;orthogonalLoop=1;jettySize=auto;html=1;exitX=1;exitY=0.5;exitDx=0;exitDy=0;entryX=0.5;entryY=0;entryDx=0;entryDy=0;dashed=1;fontSize=14;endArrow=classic;endFill=1;" parent="1" source="vN8HBcDRqM89FRdapi-8-11" target="oR9qkToTt6fAtuaVTWsN-167" edge="1">
          <mxGeometry relative="1" as="geometry">
            <Array as="points">
              <mxPoint x="1230" y="2130" />
            </Array>
          </mxGeometry>
        </mxCell>
        <mxCell id="oR9qkToTt6fAtuaVTWsN-258" value="&amp;lt;&amp;lt;include&amp;gt;&amp;gt;" style="edgeLabel;html=1;align=center;verticalAlign=middle;resizable=0;points=[];fontSize=14;" parent="oR9qkToTt6fAtuaVTWsN-255" vertex="1" connectable="0">
          <mxGeometry x="0.1778" y="2" relative="1" as="geometry">
            <mxPoint as="offset" />
          </mxGeometry>
        </mxCell>
        <mxCell id="vN8HBcDRqM89FRdapi-8-11" value="Gestion des comptes utilisateurs" style="html=1;overflow=block;blockSpacing=1;whiteSpace=wrap;ellipse;fontSize=13;spacing=3.8;strokeColor=#5e5e5e;strokeOpacity=100;rounded=1;absoluteArcSize=1;arcSize=9;strokeWidth=2.3;lucidId=.BitsejxpJ_f;" parent="1" vertex="1">
          <mxGeometry x="550" y="2080" width="240" height="90" as="geometry" />
        </mxCell>
        <mxCell id="oR9qkToTt6fAtuaVTWsN-206" style="edgeStyle=none;rounded=0;orthogonalLoop=1;jettySize=auto;html=1;exitX=0;exitY=0.5;exitDx=0;exitDy=0;entryX=1;entryY=0.3333333333333333;entryDx=0;entryDy=0;entryPerimeter=0;fontSize=18;endArrow=none;endFill=0;" parent="1" source="vN8HBcDRqM89FRdapi-8-12" target="Xd1Pg4iGhiYPtQFeeaUK-102" edge="1">
          <mxGeometry relative="1" as="geometry" />
        </mxCell>
        <mxCell id="vN8HBcDRqM89FRdapi-8-12" value="Gestion d&#39;eveneenmts" style="html=1;overflow=block;blockSpacing=1;whiteSpace=wrap;ellipse;fontSize=13;spacing=3.8;strokeColor=#5e5e5e;strokeOpacity=100;rounded=1;absoluteArcSize=1;arcSize=9;strokeWidth=2.3;lucidId=.BitsejxpJ_f;" parent="1" vertex="1">
          <mxGeometry x="457.5" y="2240" width="195" height="90" as="geometry" />
        </mxCell>
        <mxCell id="oR9qkToTt6fAtuaVTWsN-193" style="edgeStyle=none;rounded=0;orthogonalLoop=1;jettySize=auto;html=1;exitX=0;exitY=0.5;exitDx=0;exitDy=0;entryX=1;entryY=0.5;entryDx=0;entryDy=0;fontSize=14;endArrow=block;endFill=0;" parent="1" source="vN8HBcDRqM89FRdapi-8-13" target="vN8HBcDRqM89FRdapi-8-12" edge="1">
          <mxGeometry relative="1" as="geometry" />
        </mxCell>
        <mxCell id="oR9qkToTt6fAtuaVTWsN-253" style="edgeStyle=none;rounded=0;orthogonalLoop=1;jettySize=auto;html=1;exitX=1;exitY=0.5;exitDx=0;exitDy=0;dashed=1;fontSize=14;endArrow=classic;endFill=1;" parent="1" source="vN8HBcDRqM89FRdapi-8-13" target="oR9qkToTt6fAtuaVTWsN-167" edge="1">
          <mxGeometry relative="1" as="geometry" />
        </mxCell>
        <mxCell id="oR9qkToTt6fAtuaVTWsN-260" value="&amp;lt;&amp;lt;include&amp;gt;&amp;gt;" style="edgeLabel;html=1;align=center;verticalAlign=middle;resizable=0;points=[];fontSize=14;" parent="oR9qkToTt6fAtuaVTWsN-253" vertex="1" connectable="0">
          <mxGeometry x="-0.3201" y="2" relative="1" as="geometry">
            <mxPoint as="offset" />
          </mxGeometry>
        </mxCell>
        <mxCell id="vN8HBcDRqM89FRdapi-8-13" value="Creer Ã©venement" style="html=1;overflow=block;blockSpacing=1;whiteSpace=wrap;ellipse;fontSize=13;spacing=3.8;strokeColor=#5e5e5e;strokeOpacity=100;rounded=1;absoluteArcSize=1;arcSize=9;strokeWidth=2.3;lucidId=.BitsejxpJ_f;" parent="1" vertex="1">
          <mxGeometry x="875" y="2240" width="195" height="90" as="geometry" />
        </mxCell>
        <mxCell id="oR9qkToTt6fAtuaVTWsN-211" style="edgeStyle=none;rounded=0;orthogonalLoop=1;jettySize=auto;html=1;exitX=0;exitY=0.5;exitDx=0;exitDy=0;entryX=0.922;entryY=0.844;entryDx=0;entryDy=0;entryPerimeter=0;fontSize=18;endArrow=block;endFill=0;" parent="1" source="vN8HBcDRqM89FRdapi-8-15" target="vN8HBcDRqM89FRdapi-8-12" edge="1">
          <mxGeometry relative="1" as="geometry" />
        </mxCell>
        <mxCell id="oR9qkToTt6fAtuaVTWsN-252" style="edgeStyle=none;rounded=0;orthogonalLoop=1;jettySize=auto;html=1;exitX=1;exitY=0.5;exitDx=0;exitDy=0;entryX=0;entryY=0.5;entryDx=0;entryDy=0;dashed=1;fontSize=14;endArrow=classic;endFill=1;" parent="1" source="vN8HBcDRqM89FRdapi-8-15" target="oR9qkToTt6fAtuaVTWsN-167" edge="1">
          <mxGeometry relative="1" as="geometry" />
        </mxCell>
        <mxCell id="oR9qkToTt6fAtuaVTWsN-261" value="&amp;lt;&amp;lt;include&amp;gt;&amp;gt;" style="edgeLabel;html=1;align=center;verticalAlign=middle;resizable=0;points=[];fontSize=14;" parent="oR9qkToTt6fAtuaVTWsN-252" vertex="1" connectable="0">
          <mxGeometry x="-0.234" y="-2" relative="1" as="geometry">
            <mxPoint as="offset" />
          </mxGeometry>
        </mxCell>
        <mxCell id="vN8HBcDRqM89FRdapi-8-15" value="modifier evenement" style="html=1;overflow=block;blockSpacing=1;whiteSpace=wrap;ellipse;fontSize=13;spacing=3.8;strokeColor=#5e5e5e;strokeOpacity=100;rounded=1;absoluteArcSize=1;arcSize=9;strokeWidth=2.3;lucidId=.BitsejxpJ_f;" parent="1" vertex="1">
          <mxGeometry x="815" y="2340" width="195" height="90" as="geometry" />
        </mxCell>
        <mxCell id="oR9qkToTt6fAtuaVTWsN-122" style="rounded=0;orthogonalLoop=1;jettySize=auto;html=1;exitX=1;exitY=0.3333333333333333;exitDx=0;exitDy=0;exitPerimeter=0;entryX=0;entryY=0.5;entryDx=0;entryDy=0;" parent="1" source="vN8HBcDRqM89FRdapi-8-19" target="vN8HBcDRqM89FRdapi-8-20" edge="1">
          <mxGeometry relative="1" as="geometry" />
        </mxCell>
        <mxCell id="oR9qkToTt6fAtuaVTWsN-123" style="edgeStyle=none;rounded=0;orthogonalLoop=1;jettySize=auto;html=1;exitX=1;exitY=0.3333333333333333;exitDx=0;exitDy=0;exitPerimeter=0;entryX=0;entryY=0.5;entryDx=0;entryDy=0;" parent="1" source="vN8HBcDRqM89FRdapi-8-19" target="vN8HBcDRqM89FRdapi-8-23" edge="1">
          <mxGeometry relative="1" as="geometry" />
        </mxCell>
        <mxCell id="oR9qkToTt6fAtuaVTWsN-124" style="edgeStyle=none;rounded=0;orthogonalLoop=1;jettySize=auto;html=1;exitX=1;exitY=0.3333333333333333;exitDx=0;exitDy=0;exitPerimeter=0;entryX=0;entryY=0.5;entryDx=0;entryDy=0;" parent="1" source="vN8HBcDRqM89FRdapi-8-19" target="oR9qkToTt6fAtuaVTWsN-59" edge="1">
          <mxGeometry relative="1" as="geometry" />
        </mxCell>
        <mxCell id="vN8HBcDRqM89FRdapi-8-19" value="Utilisateur" style="html=1;overflow=block;blockSpacing=1;shape=umlActor;labelPosition=center;verticalLabelPosition=bottom;verticalAlign=top;whiteSpace=nowrap;fontSize=16.7;fontColor=#333333;align=center;spacing=0;strokeColor=#5e5e5e;strokeOpacity=100;rounded=1;absoluteArcSize=1;arcSize=9;strokeWidth=2.3;lucidId=8mitzC-ZQj-q;" parent="1" vertex="1">
          <mxGeometry x="120" y="-30" width="60" height="135" as="geometry" />
        </mxCell>
        <mxCell id="vN8HBcDRqM89FRdapi-8-20" value="Consulter les evenements" style="html=1;overflow=block;blockSpacing=1;whiteSpace=wrap;ellipse;fontSize=13;spacing=3.8;strokeColor=#5e5e5e;strokeOpacity=100;rounded=1;absoluteArcSize=1;arcSize=9;strokeWidth=2.3;lucidId=soitjvf58P_N;" parent="1" vertex="1">
          <mxGeometry x="425" y="-140" width="165" height="90" as="geometry" />
        </mxCell>
        <mxCell id="oR9qkToTt6fAtuaVTWsN-225" style="edgeStyle=none;rounded=0;orthogonalLoop=1;jettySize=auto;html=1;exitX=1;exitY=0.3333333333333333;exitDx=0;exitDy=0;exitPerimeter=0;entryX=0.019;entryY=0.588;entryDx=0;entryDy=0;entryPerimeter=0;fontSize=18;endArrow=none;endFill=0;" parent="1" source="vN8HBcDRqM89FRdapi-8-21" target="vN8HBcDRqM89FRdapi-8-26" edge="1">
          <mxGeometry relative="1" as="geometry" />
        </mxCell>
        <mxCell id="oR9qkToTt6fAtuaVTWsN-227" style="edgeStyle=none;rounded=0;orthogonalLoop=1;jettySize=auto;html=1;exitX=1;exitY=0.3333333333333333;exitDx=0;exitDy=0;exitPerimeter=0;entryX=0;entryY=0;entryDx=0;entryDy=0;fontSize=18;endArrow=none;endFill=0;" parent="1" source="vN8HBcDRqM89FRdapi-8-21" target="oR9qkToTt6fAtuaVTWsN-66" edge="1">
          <mxGeometry relative="1" as="geometry" />
        </mxCell>
        <mxCell id="oR9qkToTt6fAtuaVTWsN-235" style="edgeStyle=none;rounded=0;orthogonalLoop=1;jettySize=auto;html=1;exitX=1;exitY=1;exitDx=0;exitDy=0;exitPerimeter=0;entryX=0;entryY=0.5;entryDx=0;entryDy=0;fontSize=14;endArrow=none;endFill=0;" parent="1" source="vN8HBcDRqM89FRdapi-8-21" target="oR9qkToTt6fAtuaVTWsN-111" edge="1">
          <mxGeometry relative="1" as="geometry" />
        </mxCell>
        <mxCell id="vN8HBcDRqM89FRdapi-8-21" value="Client" style="html=1;overflow=block;blockSpacing=1;shape=umlActor;labelPosition=center;verticalLabelPosition=bottom;verticalAlign=top;whiteSpace=nowrap;fontSize=16.7;fontColor=#333333;align=center;spacing=0;strokeColor=#5e5e5e;strokeOpacity=100;rounded=1;absoluteArcSize=1;arcSize=9;strokeWidth=2.3;lucidId=Zoit8c.qYpQ7;" parent="1" vertex="1">
          <mxGeometry x="165" y="420" width="60" height="135" as="geometry" />
        </mxCell>
        <mxCell id="vN8HBcDRqM89FRdapi-8-22" value="" style="html=1;jettySize=18;whiteSpace=wrap;fontSize=13;strokeColor=#5E5E5E;strokeWidth=1.5;rounded=1;arcSize=12;edgeStyle=orthogonalEdgeStyle;startArrow=none;endArrow=block;endFill=1;lucidId=mpitS5lhm7C1;" parent="1" edge="1">
          <mxGeometry width="100" height="100" relative="1" as="geometry">
            <Array as="points" />
            <mxPoint x="676" y="29" as="sourcePoint" />
            <mxPoint x="676" y="29" as="targetPoint" />
          </mxGeometry>
        </mxCell>
        <mxCell id="vN8HBcDRqM89FRdapi-8-23" value="Creer un compte" style="html=1;overflow=block;blockSpacing=1;whiteSpace=wrap;ellipse;fontSize=13;spacing=3.8;strokeColor=#5e5e5e;strokeOpacity=100;rounded=1;absoluteArcSize=1;arcSize=9;strokeWidth=2.3;lucidId=KpitLF8Kvkj4;" parent="1" vertex="1">
          <mxGeometry x="414" y="-7.5" width="165" height="90" as="geometry" />
        </mxCell>
        <mxCell id="oR9qkToTt6fAtuaVTWsN-240" style="edgeStyle=none;rounded=0;orthogonalLoop=1;jettySize=auto;html=1;exitX=1;exitY=1;exitDx=0;exitDy=0;entryX=0.617;entryY=0.111;entryDx=0;entryDy=0;entryPerimeter=0;dashed=1;fontSize=14;endArrow=classic;endFill=1;" parent="1" source="vN8HBcDRqM89FRdapi-8-26" target="oR9qkToTt6fAtuaVTWsN-161" edge="1">
          <mxGeometry relative="1" as="geometry">
            <Array as="points">
              <mxPoint x="1110" y="440" />
            </Array>
          </mxGeometry>
        </mxCell>
        <mxCell id="oR9qkToTt6fAtuaVTWsN-245" value="&amp;lt;&amp;lt;include&amp;gt;&amp;gt;" style="edgeLabel;html=1;align=center;verticalAlign=middle;resizable=0;points=[];fontSize=14;" parent="oR9qkToTt6fAtuaVTWsN-240" vertex="1" connectable="0">
          <mxGeometry x="-0.1071" y="5" relative="1" as="geometry">
            <mxPoint as="offset" />
          </mxGeometry>
        </mxCell>
        <mxCell id="vN8HBcDRqM89FRdapi-8-26" value="Gerer le profil" style="html=1;overflow=block;blockSpacing=1;whiteSpace=wrap;ellipse;fontSize=13;spacing=3.8;strokeColor=#5e5e5e;strokeOpacity=100;rounded=1;absoluteArcSize=1;arcSize=9;strokeWidth=2.3;lucidId=3sitsereLQRn;" parent="1" vertex="1">
          <mxGeometry x="354.5" y="340" width="120" height="90" as="geometry" />
        </mxCell>
        <mxCell id="oR9qkToTt6fAtuaVTWsN-226" style="edgeStyle=none;rounded=0;orthogonalLoop=1;jettySize=auto;html=1;exitX=0;exitY=0.5;exitDx=0;exitDy=0;entryX=1;entryY=0.3333333333333333;entryDx=0;entryDy=0;entryPerimeter=0;fontSize=18;endArrow=none;endFill=0;" parent="1" source="vN8HBcDRqM89FRdapi-8-27" target="vN8HBcDRqM89FRdapi-8-21" edge="1">
          <mxGeometry relative="1" as="geometry" />
        </mxCell>
        <mxCell id="oR9qkToTt6fAtuaVTWsN-241" style="edgeStyle=none;rounded=0;orthogonalLoop=1;jettySize=auto;html=1;entryX=0.5;entryY=0;entryDx=0;entryDy=0;dashed=1;fontSize=14;endArrow=classic;endFill=1;exitX=1;exitY=0.5;exitDx=0;exitDy=0;" parent="1" source="kNtf1P3-DXDfk0lgMbVt-1" target="oR9qkToTt6fAtuaVTWsN-161" edge="1">
          <mxGeometry relative="1" as="geometry">
            <Array as="points">
              <mxPoint x="1040" y="520" />
            </Array>
            <mxPoint x="780" y="500" as="sourcePoint" />
          </mxGeometry>
        </mxCell>
        <mxCell id="oR9qkToTt6fAtuaVTWsN-244" value="&amp;lt;&amp;lt;include&amp;gt;&amp;gt;" style="edgeLabel;html=1;align=center;verticalAlign=middle;resizable=0;points=[];fontSize=14;" parent="oR9qkToTt6fAtuaVTWsN-241" vertex="1" connectable="0">
          <mxGeometry x="-0.0579" y="1" relative="1" as="geometry">
            <mxPoint as="offset" />
          </mxGeometry>
        </mxCell>
        <mxCell id="vN8HBcDRqM89FRdapi-8-27" value="GÃ©rer le panier" style="html=1;overflow=block;blockSpacing=1;whiteSpace=wrap;ellipse;fontSize=13;spacing=3.8;strokeColor=#5e5e5e;strokeOpacity=100;rounded=1;absoluteArcSize=1;arcSize=9;strokeWidth=2.3;lucidId=atit3Y5sFF7p;" parent="1" vertex="1">
          <mxGeometry x="370" y="465" width="120" height="90" as="geometry" />
        </mxCell>
        <mxCell id="oR9qkToTt6fAtuaVTWsN-223" style="edgeStyle=none;rounded=0;orthogonalLoop=1;jettySize=auto;html=1;exitX=0;exitY=1;exitDx=0;exitDy=0;fontSize=18;endArrow=block;endFill=0;" parent="1" source="vN8HBcDRqM89FRdapi-8-28" target="vN8HBcDRqM89FRdapi-8-26" edge="1">
          <mxGeometry relative="1" as="geometry" />
        </mxCell>
        <mxCell id="vN8HBcDRqM89FRdapi-8-28" value="Desactiver le profil" style="html=1;overflow=block;blockSpacing=1;whiteSpace=wrap;ellipse;fontSize=13;spacing=3.8;strokeColor=#5e5e5e;strokeOpacity=100;rounded=1;absoluteArcSize=1;arcSize=9;strokeWidth=2.3;lucidId=jtitNFk_JNwB;" parent="1" vertex="1">
          <mxGeometry x="521.5" y="260" width="120" height="90" as="geometry" />
        </mxCell>
        <mxCell id="oR9qkToTt6fAtuaVTWsN-236" style="edgeStyle=none;rounded=0;orthogonalLoop=1;jettySize=auto;html=1;exitX=0;exitY=0.5;exitDx=0;exitDy=0;entryX=0;entryY=1;entryDx=0;entryDy=0;entryPerimeter=0;fontSize=14;endArrow=none;endFill=0;" parent="1" source="vN8HBcDRqM89FRdapi-8-29" target="vN8HBcDRqM89FRdapi-8-21" edge="1">
          <mxGeometry relative="1" as="geometry">
            <Array as="points">
              <mxPoint x="220" y="1085" />
            </Array>
          </mxGeometry>
        </mxCell>
        <mxCell id="oR9qkToTt6fAtuaVTWsN-237" value="&amp;lt;&amp;lt;include&amp;gt;&amp;gt;" style="edgeStyle=none;rounded=0;orthogonalLoop=1;jettySize=auto;html=1;exitX=1;exitY=0.5;exitDx=0;exitDy=0;entryX=0;entryY=1;entryDx=0;entryDy=0;fontSize=14;endArrow=classic;endFill=1;dashed=1;" parent="1" source="vN8HBcDRqM89FRdapi-8-29" target="oR9qkToTt6fAtuaVTWsN-161" edge="1">
          <mxGeometry relative="1" as="geometry" />
        </mxCell>
        <mxCell id="vN8HBcDRqM89FRdapi-8-29" value="Consulter liste ludification" style="html=1;overflow=block;blockSpacing=1;whiteSpace=wrap;ellipse;fontSize=13;spacing=3.8;strokeColor=#5e5e5e;strokeOpacity=100;rounded=1;absoluteArcSize=1;arcSize=9;strokeWidth=2.3;lucidId=AtitZLWRrcX2;" parent="1" vertex="1">
          <mxGeometry x="354.5" y="1040" width="120" height="90" as="geometry" />
        </mxCell>
        <mxCell id="oR9qkToTt6fAtuaVTWsN-215" style="edgeStyle=none;rounded=0;orthogonalLoop=1;jettySize=auto;html=1;exitX=0;exitY=0.5;exitDx=0;exitDy=0;entryX=0.995;entryY=0.61;entryDx=0;entryDy=0;fontSize=18;endArrow=block;endFill=0;entryPerimeter=0;" parent="1" source="vN8HBcDRqM89FRdapi-8-31" target="oR9qkToTt6fAtuaVTWsN-109" edge="1">
          <mxGeometry relative="1" as="geometry">
            <mxPoint x="662.56528106106" y="956.7153074572602" as="targetPoint" />
          </mxGeometry>
        </mxCell>
        <mxCell id="vN8HBcDRqM89FRdapi-8-31" value="Ajouter u ami &#39;abonner&#39;" style="html=1;overflow=block;blockSpacing=1;whiteSpace=wrap;ellipse;fontSize=13;spacing=3.8;strokeColor=#5e5e5e;strokeOpacity=100;rounded=1;absoluteArcSize=1;arcSize=9;strokeWidth=2.3;lucidId=yuiteOMJiaQA;" parent="1" vertex="1">
          <mxGeometry x="785" y="710" width="120" height="90" as="geometry" />
        </mxCell>
        <mxCell id="oR9qkToTt6fAtuaVTWsN-213" style="edgeStyle=none;rounded=0;orthogonalLoop=1;jettySize=auto;html=1;exitX=0;exitY=0.5;exitDx=0;exitDy=0;entryX=1;entryY=1;entryDx=0;entryDy=0;fontSize=18;endArrow=block;endFill=0;" parent="1" source="vN8HBcDRqM89FRdapi-8-32" target="oR9qkToTt6fAtuaVTWsN-109" edge="1">
          <mxGeometry relative="1" as="geometry">
            <mxPoint x="648.0799999999999" y="965.2299999999996" as="targetPoint" />
          </mxGeometry>
        </mxCell>
        <mxCell id="vN8HBcDRqM89FRdapi-8-32" value="Supprimer un ami" style="html=1;overflow=block;blockSpacing=1;whiteSpace=wrap;ellipse;fontSize=13;spacing=3.8;strokeColor=#5e5e5e;strokeOpacity=100;rounded=1;absoluteArcSize=1;arcSize=9;strokeWidth=2.3;lucidId=Juitxt.MBrJM;" parent="1" vertex="1">
          <mxGeometry x="770" y="800" width="120" height="90" as="geometry" />
        </mxCell>
        <mxCell id="oR9qkToTt6fAtuaVTWsN-214" value="" style="edgeStyle=none;rounded=0;orthogonalLoop=1;jettySize=auto;html=1;fontSize=18;endArrow=block;endFill=0;entryX=0.958;entryY=0.375;entryDx=0;entryDy=0;entryPerimeter=0;" parent="1" source="vN8HBcDRqM89FRdapi-8-33" target="oR9qkToTt6fAtuaVTWsN-109" edge="1">
          <mxGeometry relative="1" as="geometry">
            <mxPoint x="678.8493050127047" y="916.229190118298" as="targetPoint" />
          </mxGeometry>
        </mxCell>
        <mxCell id="vN8HBcDRqM89FRdapi-8-33" value="Consulter la liste des utilisateurs" style="html=1;overflow=block;blockSpacing=1;whiteSpace=wrap;ellipse;fontSize=13;spacing=3.8;strokeColor=#5e5e5e;strokeOpacity=100;rounded=1;absoluteArcSize=1;arcSize=9;strokeWidth=2.3;lucidId=SuitE4AoL12q;" parent="1" vertex="1">
          <mxGeometry x="755" y="625" width="150" height="75" as="geometry" />
        </mxCell>
        <mxCell id="oR9qkToTt6fAtuaVTWsN-217" style="edgeStyle=none;rounded=0;orthogonalLoop=1;jettySize=auto;html=1;exitX=1;exitY=0.3333333333333333;exitDx=0;exitDy=0;exitPerimeter=0;entryX=0;entryY=0.5;entryDx=0;entryDy=0;fontSize=18;endArrow=none;endFill=0;" parent="1" source="vN8HBcDRqM89FRdapi-8-45" target="vN8HBcDRqM89FRdapi-8-49" edge="1">
          <mxGeometry relative="1" as="geometry" />
        </mxCell>
        <mxCell id="vN8HBcDRqM89FRdapi-8-45" value="Portier" style="html=1;overflow=block;blockSpacing=1;shape=umlActor;labelPosition=center;verticalLabelPosition=bottom;verticalAlign=top;whiteSpace=nowrap;fontSize=16.7;fontColor=#333333;align=center;spacing=0;strokeColor=#5e5e5e;strokeOpacity=100;rounded=1;absoluteArcSize=1;arcSize=9;strokeWidth=2.3;lucidId=wAitfE4UTxwo;" parent="1" vertex="1">
          <mxGeometry x="205" y="1340" width="60" height="135" as="geometry" />
        </mxCell>
        <mxCell id="vN8HBcDRqM89FRdapi-8-46" style="rounded=0;orthogonalLoop=1;jettySize=auto;html=1;exitX=0;exitY=0.5;exitDx=0;exitDy=0;entryX=1;entryY=0.3333333333333333;entryDx=0;entryDy=0;entryPerimeter=0;endArrow=none;endFill=0;" parent="1" source="vN8HBcDRqM89FRdapi-8-47" target="vN8HBcDRqM89FRdapi-8-45" edge="1">
          <mxGeometry relative="1" as="geometry">
            <mxPoint x="270" y="1415" as="targetPoint" />
          </mxGeometry>
        </mxCell>
        <mxCell id="oR9qkToTt6fAtuaVTWsN-216" value="&amp;lt;&amp;lt;include&amp;gt;&amp;gt;" style="edgeStyle=none;rounded=0;orthogonalLoop=1;jettySize=auto;html=1;exitX=1;exitY=0.5;exitDx=0;exitDy=0;entryX=0;entryY=0;entryDx=0;entryDy=0;fontSize=18;endArrow=classic;endFill=1;dashed=1;" parent="1" edge="1">
          <mxGeometry relative="1" as="geometry">
            <mxPoint x="726" y="1407.5" as="sourcePoint" />
            <mxPoint x="1113.5735931288073" y="1583.180194846606" as="targetPoint" />
          </mxGeometry>
        </mxCell>
        <mxCell id="vN8HBcDRqM89FRdapi-8-47" value="Consulter la liste des evenements supervisÃ©" style="html=1;overflow=block;blockSpacing=1;whiteSpace=wrap;ellipse;fontSize=13;spacing=3.8;strokeColor=#5e5e5e;strokeOpacity=100;rounded=1;absoluteArcSize=1;arcSize=9;strokeWidth=2.3;lucidId=eDitzyq0~7Tt;" parent="1" vertex="1">
          <mxGeometry x="610" y="1362.5" width="120" height="90" as="geometry" />
        </mxCell>
        <mxCell id="vN8HBcDRqM89FRdapi-8-49" value="Verfier les reservations des clients avec Qr reader" style="html=1;overflow=block;blockSpacing=1;whiteSpace=wrap;ellipse;fontSize=13;spacing=3.8;strokeColor=#5e5e5e;strokeOpacity=100;rounded=1;absoluteArcSize=1;arcSize=9;strokeWidth=2.3;lucidId=tDitnoB0Gj56;" parent="1" vertex="1">
          <mxGeometry x="577" y="1490" width="210" height="100" as="geometry" />
        </mxCell>
        <mxCell id="oR9qkToTt6fAtuaVTWsN-192" value="&amp;lt;&amp;lt;include&amp;gt;&amp;gt;" style="edgeStyle=none;rounded=0;orthogonalLoop=1;jettySize=auto;html=1;exitX=1;exitY=1;exitDx=0;exitDy=0;entryX=0.5;entryY=0;entryDx=0;entryDy=0;dashed=1;fontSize=14;endArrow=classic;endFill=1;" parent="1" source="vN8HBcDRqM89FRdapi-8-54" target="oR9qkToTt6fAtuaVTWsN-171" edge="1">
          <mxGeometry relative="1" as="geometry" />
        </mxCell>
        <mxCell id="vN8HBcDRqM89FRdapi-8-54" value="Gestion des comptes utilisateurs" style="html=1;overflow=block;blockSpacing=1;whiteSpace=wrap;ellipse;fontSize=13;spacing=3.8;strokeColor=#5e5e5e;strokeOpacity=100;rounded=1;absoluteArcSize=1;arcSize=9;strokeWidth=2.3;lucidId=2CmtHglSXUaJ;" parent="1" vertex="1">
          <mxGeometry x="560" y="3400" width="188" height="75" as="geometry" />
        </mxCell>
        <mxCell id="oR9qkToTt6fAtuaVTWsN-191" value="&#xa;&amp;lt;&amp;lt;include&amp;gt;&amp;gt;&#xa;&#xa;" style="edgeStyle=none;rounded=0;orthogonalLoop=1;jettySize=auto;html=1;exitX=1;exitY=0.5;exitDx=0;exitDy=0;entryX=0;entryY=0;entryDx=0;entryDy=0;dashed=1;fontSize=14;endArrow=classic;endFill=1;" parent="1" source="vN8HBcDRqM89FRdapi-8-55" target="oR9qkToTt6fAtuaVTWsN-171" edge="1">
          <mxGeometry relative="1" as="geometry" />
        </mxCell>
        <mxCell id="oR9qkToTt6fAtuaVTWsN-266" style="edgeStyle=none;rounded=0;orthogonalLoop=1;jettySize=auto;html=1;exitX=0;exitY=0.5;exitDx=0;exitDy=0;fontSize=14;endArrow=none;endFill=0;" parent="1" source="vN8HBcDRqM89FRdapi-8-55" edge="1">
          <mxGeometry relative="1" as="geometry">
            <mxPoint x="250" y="3535" as="targetPoint" />
          </mxGeometry>
        </mxCell>
        <mxCell id="vN8HBcDRqM89FRdapi-8-55" value="Consulter les  statistiues d&#39;applications" style="html=1;overflow=block;blockSpacing=1;whiteSpace=wrap;ellipse;fontSize=13;spacing=3.8;strokeColor=#5e5e5e;strokeOpacity=100;rounded=1;absoluteArcSize=1;arcSize=9;strokeWidth=2.3;lucidId=4Cmtud14x5Y7;" parent="1" vertex="1">
          <mxGeometry x="560" y="3505" width="210" height="60" as="geometry" />
        </mxCell>
        <mxCell id="oR9qkToTt6fAtuaVTWsN-190" value="&#xa;&amp;lt;&amp;lt;include&amp;gt;&amp;gt;&#xa;&#xa;" style="edgeStyle=none;rounded=0;orthogonalLoop=1;jettySize=auto;html=1;exitX=1;exitY=0.5;exitDx=0;exitDy=0;entryX=0.039;entryY=0.34;entryDx=0;entryDy=0;entryPerimeter=0;dashed=1;fontSize=14;endArrow=classic;endFill=1;" parent="1" source="vN8HBcDRqM89FRdapi-8-56" target="oR9qkToTt6fAtuaVTWsN-171" edge="1">
          <mxGeometry relative="1" as="geometry" />
        </mxCell>
        <mxCell id="oR9qkToTt6fAtuaVTWsN-267" style="edgeStyle=none;rounded=0;orthogonalLoop=1;jettySize=auto;html=1;exitX=0;exitY=0.5;exitDx=0;exitDy=0;fontSize=14;endArrow=none;endFill=0;" parent="1" source="vN8HBcDRqM89FRdapi-8-56" edge="1">
          <mxGeometry relative="1" as="geometry">
            <mxPoint x="250" y="3540" as="targetPoint" />
          </mxGeometry>
        </mxCell>
        <mxCell id="vN8HBcDRqM89FRdapi-8-56" value="Verifier Organizateur" style="html=1;overflow=block;blockSpacing=1;whiteSpace=wrap;ellipse;fontSize=13;spacing=3.8;strokeColor=#5e5e5e;strokeOpacity=100;rounded=1;absoluteArcSize=1;arcSize=9;strokeWidth=2.3;lucidId=6CmtnAD3XU6T;" parent="1" vertex="1">
          <mxGeometry x="560" y="3590" width="195" height="60" as="geometry" />
        </mxCell>
        <mxCell id="oR9qkToTt6fAtuaVTWsN-189" value="&#xa;&amp;lt;&amp;lt;include&amp;gt;&amp;gt;&#xa;&#xa;" style="edgeStyle=none;rounded=0;orthogonalLoop=1;jettySize=auto;html=1;exitX=1;exitY=0.5;exitDx=0;exitDy=0;entryX=0;entryY=0.5;entryDx=0;entryDy=0;fontSize=14;endArrow=classic;endFill=1;dashed=1;" parent="1" source="vN8HBcDRqM89FRdapi-8-57" target="oR9qkToTt6fAtuaVTWsN-171" edge="1">
          <mxGeometry relative="1" as="geometry" />
        </mxCell>
        <mxCell id="oR9qkToTt6fAtuaVTWsN-268" style="edgeStyle=none;rounded=0;orthogonalLoop=1;jettySize=auto;html=1;exitX=0;exitY=0.5;exitDx=0;exitDy=0;entryX=1;entryY=0.3333333333333333;entryDx=0;entryDy=0;entryPerimeter=0;fontSize=14;endArrow=none;endFill=0;" parent="1" source="vN8HBcDRqM89FRdapi-8-57" target="Xd1Pg4iGhiYPtQFeeaUK-61" edge="1">
          <mxGeometry relative="1" as="geometry" />
        </mxCell>
        <mxCell id="vN8HBcDRqM89FRdapi-8-57" value="Gerer  Artists" style="html=1;overflow=block;blockSpacing=1;whiteSpace=wrap;ellipse;fontSize=13;spacing=3.8;strokeColor=#5e5e5e;strokeOpacity=100;rounded=1;absoluteArcSize=1;arcSize=9;strokeWidth=2.3;lucidId=9Cmt3dIYTxuM;" parent="1" vertex="1">
          <mxGeometry x="655" y="3670" width="165" height="90" as="geometry" />
        </mxCell>
        <mxCell id="oR9qkToTt6fAtuaVTWsN-1" value="utilisateur" style="shape=umlActor;verticalLabelPosition=bottom;verticalAlign=top;html=1;outlineConnect=0;" parent="1" vertex="1">
          <mxGeometry x="185" y="4890" width="40" height="70" as="geometry" />
        </mxCell>
        <mxCell id="oR9qkToTt6fAtuaVTWsN-2" value="CrÃ©er compte" style="ellipse;whiteSpace=wrap;html=1;" parent="1" vertex="1">
          <mxGeometry x="365" y="4890" width="120" height="30" as="geometry" />
        </mxCell>
        <mxCell id="oR9qkToTt6fAtuaVTWsN-3" value="Consulter les evenememnts" style="ellipse;whiteSpace=wrap;html=1;" parent="1" vertex="1">
          <mxGeometry x="345" y="4960" width="180" height="30" as="geometry" />
        </mxCell>
        <mxCell id="oR9qkToTt6fAtuaVTWsN-4" value="" style="endArrow=none;html=1;rounded=0;entryX=0;entryY=0.5;entryDx=0;entryDy=0;" parent="1" source="oR9qkToTt6fAtuaVTWsN-1" target="oR9qkToTt6fAtuaVTWsN-2" edge="1">
          <mxGeometry width="50" height="50" relative="1" as="geometry">
            <mxPoint x="245" y="4950" as="sourcePoint" />
            <mxPoint x="295" y="4900" as="targetPoint" />
            <Array as="points">
              <mxPoint x="275" y="4910" />
            </Array>
          </mxGeometry>
        </mxCell>
        <mxCell id="oR9qkToTt6fAtuaVTWsN-5" value="" style="endArrow=none;html=1;rounded=0;entryX=0.013;entryY=0.322;entryDx=0;entryDy=0;entryPerimeter=0;" parent="1" source="oR9qkToTt6fAtuaVTWsN-1" target="oR9qkToTt6fAtuaVTWsN-3" edge="1">
          <mxGeometry width="50" height="50" relative="1" as="geometry">
            <mxPoint x="265" y="4970" as="sourcePoint" />
            <mxPoint x="315" y="4920" as="targetPoint" />
          </mxGeometry>
        </mxCell>
        <mxCell id="oR9qkToTt6fAtuaVTWsN-6" style="edgeStyle=orthogonalEdgeStyle;rounded=0;orthogonalLoop=1;jettySize=auto;html=1;" parent="1" source="oR9qkToTt6fAtuaVTWsN-7" edge="1">
          <mxGeometry relative="1" as="geometry">
            <mxPoint x="205" y="4980" as="targetPoint" />
          </mxGeometry>
        </mxCell>
        <mxCell id="oR9qkToTt6fAtuaVTWsN-7" value="Client" style="shape=umlActor;verticalLabelPosition=bottom;verticalAlign=top;html=1;outlineConnect=0;" parent="1" vertex="1">
          <mxGeometry x="185" y="5140" width="40" height="60" as="geometry" />
        </mxCell>
        <mxCell id="oR9qkToTt6fAtuaVTWsN-8" value="Editer profil" style="ellipse;whiteSpace=wrap;html=1;" parent="1" vertex="1">
          <mxGeometry x="385" y="5050" width="120" height="30" as="geometry" />
        </mxCell>
        <mxCell id="oR9qkToTt6fAtuaVTWsN-9" value="Gestion panier" style="ellipse;whiteSpace=wrap;html=1;" parent="1" vertex="1">
          <mxGeometry x="385" y="5240" width="120" height="30" as="geometry" />
        </mxCell>
        <mxCell id="oR9qkToTt6fAtuaVTWsN-10" value="RÃ©server Ã©vÃ©nement" style="ellipse;whiteSpace=wrap;html=1;" parent="1" vertex="1">
          <mxGeometry x="380" y="5180" width="130" height="30" as="geometry" />
        </mxCell>
        <mxCell id="oR9qkToTt6fAtuaVTWsN-11" value="consulter liste ludification" style="ellipse;whiteSpace=wrap;html=1;" parent="1" vertex="1">
          <mxGeometry x="360" y="5300" width="170" height="30" as="geometry" />
        </mxCell>
        <mxCell id="oR9qkToTt6fAtuaVTWsN-12" value="Consulter les evenements" style="ellipse;whiteSpace=wrap;html=1;" parent="1" vertex="1">
          <mxGeometry x="350" y="5110" width="190" height="40" as="geometry" />
        </mxCell>
        <mxCell id="oR9qkToTt6fAtuaVTWsN-13" value="GÃ©rer la liste des abonnÃ©s" style="ellipse;whiteSpace=wrap;html=1;" parent="1" vertex="1">
          <mxGeometry x="353" y="5360" width="184" height="40" as="geometry" />
        </mxCell>
        <mxCell id="oR9qkToTt6fAtuaVTWsN-14" style="edgeStyle=orthogonalEdgeStyle;rounded=0;orthogonalLoop=1;jettySize=auto;html=1;exitX=0.5;exitY=1;exitDx=0;exitDy=0;" parent="1" source="oR9qkToTt6fAtuaVTWsN-9" target="oR9qkToTt6fAtuaVTWsN-9" edge="1">
          <mxGeometry relative="1" as="geometry" />
        </mxCell>
        <mxCell id="oR9qkToTt6fAtuaVTWsN-15" value="" style="endArrow=none;html=1;rounded=0;entryX=0;entryY=0.5;entryDx=0;entryDy=0;exitX=0.75;exitY=0.1;exitDx=0;exitDy=0;exitPerimeter=0;" parent="1" source="oR9qkToTt6fAtuaVTWsN-7" target="oR9qkToTt6fAtuaVTWsN-8" edge="1">
          <mxGeometry width="50" height="50" relative="1" as="geometry">
            <mxPoint x="225" y="5140" as="sourcePoint" />
            <mxPoint x="275" y="5090" as="targetPoint" />
          </mxGeometry>
        </mxCell>
        <mxCell id="oR9qkToTt6fAtuaVTWsN-16" value="" style="endArrow=none;html=1;rounded=0;entryX=0;entryY=0.5;entryDx=0;entryDy=0;" parent="1" source="oR9qkToTt6fAtuaVTWsN-7" target="oR9qkToTt6fAtuaVTWsN-10" edge="1">
          <mxGeometry width="50" height="50" relative="1" as="geometry">
            <mxPoint x="275" y="5210" as="sourcePoint" />
            <mxPoint x="325" y="5160" as="targetPoint" />
          </mxGeometry>
        </mxCell>
        <mxCell id="oR9qkToTt6fAtuaVTWsN-17" value="" style="endArrow=none;html=1;rounded=0;entryX=0;entryY=0.5;entryDx=0;entryDy=0;exitX=1;exitY=0.3333333333333333;exitDx=0;exitDy=0;exitPerimeter=0;" parent="1" source="oR9qkToTt6fAtuaVTWsN-7" target="oR9qkToTt6fAtuaVTWsN-12" edge="1">
          <mxGeometry width="50" height="50" relative="1" as="geometry">
            <mxPoint x="265" y="5195" as="sourcePoint" />
            <mxPoint x="315" y="5145" as="targetPoint" />
          </mxGeometry>
        </mxCell>
        <mxCell id="oR9qkToTt6fAtuaVTWsN-18" value="" style="endArrow=none;html=1;rounded=0;entryX=0;entryY=0.5;entryDx=0;entryDy=0;" parent="1" source="oR9qkToTt6fAtuaVTWsN-7" target="oR9qkToTt6fAtuaVTWsN-9" edge="1">
          <mxGeometry width="50" height="50" relative="1" as="geometry">
            <mxPoint x="275" y="5210" as="sourcePoint" />
            <mxPoint x="325" y="5160" as="targetPoint" />
          </mxGeometry>
        </mxCell>
        <mxCell id="oR9qkToTt6fAtuaVTWsN-19" value="" style="endArrow=none;html=1;rounded=0;entryX=0;entryY=0.5;entryDx=0;entryDy=0;" parent="1" source="oR9qkToTt6fAtuaVTWsN-7" target="oR9qkToTt6fAtuaVTWsN-11" edge="1">
          <mxGeometry width="50" height="50" relative="1" as="geometry">
            <mxPoint x="275" y="5210" as="sourcePoint" />
            <mxPoint x="325" y="5160" as="targetPoint" />
          </mxGeometry>
        </mxCell>
        <mxCell id="oR9qkToTt6fAtuaVTWsN-20" value="" style="endArrow=none;html=1;rounded=0;entryX=0;entryY=0.5;entryDx=0;entryDy=0;" parent="1" source="oR9qkToTt6fAtuaVTWsN-7" target="oR9qkToTt6fAtuaVTWsN-13" edge="1">
          <mxGeometry width="50" height="50" relative="1" as="geometry">
            <mxPoint x="275" y="5210" as="sourcePoint" />
            <mxPoint x="325" y="5160" as="targetPoint" />
          </mxGeometry>
        </mxCell>
        <mxCell id="oR9qkToTt6fAtuaVTWsN-21" style="edgeStyle=orthogonalEdgeStyle;rounded=0;orthogonalLoop=1;jettySize=auto;html=1;exitX=0.5;exitY=0;exitDx=0;exitDy=0;exitPerimeter=0;" parent="1" source="oR9qkToTt6fAtuaVTWsN-22" edge="1">
          <mxGeometry relative="1" as="geometry">
            <mxPoint x="205" y="5220" as="targetPoint" />
          </mxGeometry>
        </mxCell>
        <mxCell id="oR9qkToTt6fAtuaVTWsN-22" value="&lt;div&gt;Organisateur&lt;/div&gt;&lt;div&gt;&lt;br&gt;&lt;/div&gt;" style="shape=umlActor;verticalLabelPosition=bottom;verticalAlign=top;html=1;outlineConnect=0;" parent="1" vertex="1">
          <mxGeometry x="185" y="5530" width="40" height="60" as="geometry" />
        </mxCell>
        <mxCell id="oR9qkToTt6fAtuaVTWsN-23" value="Editer profil" style="ellipse;whiteSpace=wrap;html=1;" parent="1" vertex="1">
          <mxGeometry x="380" y="5450" width="110" height="30" as="geometry" />
        </mxCell>
        <mxCell id="oR9qkToTt6fAtuaVTWsN-24" value="Gerer les evenements" style="ellipse;whiteSpace=wrap;html=1;" parent="1" vertex="1">
          <mxGeometry x="367.5" y="5510" width="145" height="30" as="geometry" />
        </mxCell>
        <mxCell id="oR9qkToTt6fAtuaVTWsN-25" value="Consulter statistique" style="ellipse;whiteSpace=wrap;html=1;" parent="1" vertex="1">
          <mxGeometry x="375" y="5570" width="130" height="30" as="geometry" />
        </mxCell>
        <mxCell id="oR9qkToTt6fAtuaVTWsN-26" value="Gerer compte utilisateurs &quot;portier&quot;" style="ellipse;whiteSpace=wrap;html=1;" parent="1" vertex="1">
          <mxGeometry x="342" y="5630" width="195" height="30" as="geometry" />
        </mxCell>
        <mxCell id="oR9qkToTt6fAtuaVTWsN-27" value="Gerer les reclamation" style="ellipse;whiteSpace=wrap;html=1;" parent="1" vertex="1">
          <mxGeometry x="362" y="5690" width="155" height="30" as="geometry" />
        </mxCell>
        <mxCell id="oR9qkToTt6fAtuaVTWsN-28" value="" style="endArrow=none;html=1;rounded=0;entryX=0.006;entryY=0.291;entryDx=0;entryDy=0;entryPerimeter=0;" parent="1" target="oR9qkToTt6fAtuaVTWsN-25" edge="1">
          <mxGeometry width="50" height="50" relative="1" as="geometry">
            <mxPoint x="225" y="5560" as="sourcePoint" />
            <mxPoint x="367.5" y="5570" as="targetPoint" />
          </mxGeometry>
        </mxCell>
        <mxCell id="oR9qkToTt6fAtuaVTWsN-29" value="" style="endArrow=none;html=1;rounded=0;entryX=0;entryY=0.5;entryDx=0;entryDy=0;" parent="1" source="oR9qkToTt6fAtuaVTWsN-22" target="oR9qkToTt6fAtuaVTWsN-24" edge="1">
          <mxGeometry width="50" height="50" relative="1" as="geometry">
            <mxPoint x="303" y="5580" as="sourcePoint" />
            <mxPoint x="353" y="5530" as="targetPoint" />
          </mxGeometry>
        </mxCell>
        <mxCell id="oR9qkToTt6fAtuaVTWsN-30" value="" style="endArrow=none;html=1;rounded=0;entryX=0;entryY=0.5;entryDx=0;entryDy=0;" parent="1" source="oR9qkToTt6fAtuaVTWsN-22" target="oR9qkToTt6fAtuaVTWsN-23" edge="1">
          <mxGeometry width="50" height="50" relative="1" as="geometry">
            <mxPoint x="300" y="5520" as="sourcePoint" />
            <mxPoint x="350" y="5470" as="targetPoint" />
          </mxGeometry>
        </mxCell>
        <mxCell id="oR9qkToTt6fAtuaVTWsN-31" value="" style="endArrow=none;html=1;rounded=0;entryX=0.018;entryY=0.445;entryDx=0;entryDy=0;entryPerimeter=0;" parent="1" source="oR9qkToTt6fAtuaVTWsN-22" target="oR9qkToTt6fAtuaVTWsN-26" edge="1">
          <mxGeometry width="50" height="50" relative="1" as="geometry">
            <mxPoint x="225" y="5580" as="sourcePoint" />
            <mxPoint x="425" y="5520" as="targetPoint" />
          </mxGeometry>
        </mxCell>
        <mxCell id="oR9qkToTt6fAtuaVTWsN-32" value="" style="endArrow=none;html=1;rounded=0;exitX=1;exitY=1;exitDx=0;exitDy=0;exitPerimeter=0;entryX=0;entryY=0.5;entryDx=0;entryDy=0;" parent="1" source="oR9qkToTt6fAtuaVTWsN-22" target="oR9qkToTt6fAtuaVTWsN-27" edge="1">
          <mxGeometry width="50" height="50" relative="1" as="geometry">
            <mxPoint x="425" y="5690" as="sourcePoint" />
            <mxPoint x="475" y="5640" as="targetPoint" />
          </mxGeometry>
        </mxCell>
        <mxCell id="oR9qkToTt6fAtuaVTWsN-33" value="Agent" style="shape=umlActor;verticalLabelPosition=bottom;verticalAlign=top;html=1;outlineConnect=0;" parent="1" vertex="1">
          <mxGeometry x="185" y="5780" width="30" height="60" as="geometry" />
        </mxCell>
        <mxCell id="oR9qkToTt6fAtuaVTWsN-34" value="Editer profil" style="ellipse;whiteSpace=wrap;html=1;" parent="1" vertex="1">
          <mxGeometry x="360" y="5760" width="100" height="40" as="geometry" />
        </mxCell>
        <mxCell id="oR9qkToTt6fAtuaVTWsN-35" value="Consulter la list des evenements superviser" style="ellipse;whiteSpace=wrap;html=1;" parent="1" vertex="1">
          <mxGeometry x="290" y="5850" width="270" height="40" as="geometry" />
        </mxCell>
        <mxCell id="oR9qkToTt6fAtuaVTWsN-36" value="" style="endArrow=none;html=1;rounded=0;entryX=0;entryY=0.5;entryDx=0;entryDy=0;" parent="1" source="oR9qkToTt6fAtuaVTWsN-33" target="oR9qkToTt6fAtuaVTWsN-35" edge="1">
          <mxGeometry width="50" height="50" relative="1" as="geometry">
            <mxPoint x="385" y="5890" as="sourcePoint" />
            <mxPoint x="435" y="5840" as="targetPoint" />
          </mxGeometry>
        </mxCell>
        <mxCell id="oR9qkToTt6fAtuaVTWsN-37" value="" style="endArrow=none;html=1;rounded=0;entryX=0;entryY=0.5;entryDx=0;entryDy=0;" parent="1" source="oR9qkToTt6fAtuaVTWsN-33" target="oR9qkToTt6fAtuaVTWsN-34" edge="1">
          <mxGeometry width="50" height="50" relative="1" as="geometry">
            <mxPoint x="265" y="5820" as="sourcePoint" />
            <mxPoint x="315" y="5770" as="targetPoint" />
          </mxGeometry>
        </mxCell>
        <mxCell id="oR9qkToTt6fAtuaVTWsN-38" value="s&#39;authentifier" style="ellipse;whiteSpace=wrap;html=1;" parent="1" vertex="1">
          <mxGeometry x="745" y="5270" width="120" height="40" as="geometry" />
        </mxCell>
        <mxCell id="oR9qkToTt6fAtuaVTWsN-39" value="&amp;lt;&amp;lt;include&amp;gt;&amp;gt;" style="html=1;verticalAlign=bottom;labelBackgroundColor=none;endArrow=open;endFill=0;dashed=1;rounded=0;exitX=1;exitY=0.5;exitDx=0;exitDy=0;entryX=0.788;entryY=0.1;entryDx=0;entryDy=0;entryPerimeter=0;" parent="1" source="oR9qkToTt6fAtuaVTWsN-8" target="oR9qkToTt6fAtuaVTWsN-38" edge="1">
          <mxGeometry width="160" relative="1" as="geometry">
            <mxPoint x="555" y="5110" as="sourcePoint" />
            <mxPoint x="715" y="5110" as="targetPoint" />
            <Array as="points">
              <mxPoint x="835" y="5065" />
            </Array>
          </mxGeometry>
        </mxCell>
        <mxCell id="oR9qkToTt6fAtuaVTWsN-40" value="&amp;lt;&amp;lt;include&amp;gt;&amp;gt;" style="html=1;verticalAlign=bottom;labelBackgroundColor=none;endArrow=open;endFill=0;dashed=1;rounded=0;entryX=0.5;entryY=0;entryDx=0;entryDy=0;" parent="1" target="oR9qkToTt6fAtuaVTWsN-38" edge="1">
          <mxGeometry width="160" relative="1" as="geometry">
            <mxPoint x="510" y="5194.64" as="sourcePoint" />
            <mxPoint x="670" y="5194.64" as="targetPoint" />
            <Array as="points">
              <mxPoint x="805" y="5190" />
            </Array>
          </mxGeometry>
        </mxCell>
        <mxCell id="oR9qkToTt6fAtuaVTWsN-41" value="&amp;lt;&amp;lt;include&amp;gt;&amp;gt;" style="html=1;verticalAlign=bottom;labelBackgroundColor=none;endArrow=open;endFill=0;dashed=1;rounded=0;exitX=1;exitY=0.5;exitDx=0;exitDy=0;entryX=0.615;entryY=-0.043;entryDx=0;entryDy=0;entryPerimeter=0;" parent="1" source="oR9qkToTt6fAtuaVTWsN-12" target="oR9qkToTt6fAtuaVTWsN-38" edge="1">
          <mxGeometry width="160" relative="1" as="geometry">
            <mxPoint x="549" y="5150" as="sourcePoint" />
            <mxPoint x="709" y="5150" as="targetPoint" />
            <Array as="points">
              <mxPoint x="819" y="5130" />
            </Array>
          </mxGeometry>
        </mxCell>
        <mxCell id="oR9qkToTt6fAtuaVTWsN-42" value="&amp;lt;&amp;lt;include&amp;gt;&amp;gt;" style="html=1;verticalAlign=bottom;labelBackgroundColor=none;endArrow=open;endFill=0;dashed=1;rounded=0;entryX=0.35;entryY=0.028;entryDx=0;entryDy=0;entryPerimeter=0;" parent="1" target="oR9qkToTt6fAtuaVTWsN-38" edge="1">
          <mxGeometry width="160" relative="1" as="geometry">
            <mxPoint x="490" y="5254.64" as="sourcePoint" />
            <mxPoint x="775" y="5250" as="targetPoint" />
            <Array as="points">
              <mxPoint x="787" y="5255" />
            </Array>
          </mxGeometry>
        </mxCell>
        <mxCell id="oR9qkToTt6fAtuaVTWsN-43" value="&amp;lt;&amp;lt;include&amp;gt;&amp;gt;" style="html=1;verticalAlign=bottom;labelBackgroundColor=none;endArrow=open;endFill=0;dashed=1;rounded=0;exitX=1;exitY=0.5;exitDx=0;exitDy=0;entryX=-0.016;entryY=0.362;entryDx=0;entryDy=0;entryPerimeter=0;" parent="1" source="oR9qkToTt6fAtuaVTWsN-11" target="oR9qkToTt6fAtuaVTWsN-38" edge="1">
          <mxGeometry width="160" relative="1" as="geometry">
            <mxPoint x="495" y="5340" as="sourcePoint" />
            <mxPoint x="655" y="5340" as="targetPoint" />
            <Array as="points">
              <mxPoint x="545" y="5284" />
            </Array>
          </mxGeometry>
        </mxCell>
        <mxCell id="oR9qkToTt6fAtuaVTWsN-44" value="&amp;lt;&amp;lt;include&amp;gt;&amp;gt;" style="html=1;verticalAlign=bottom;labelBackgroundColor=none;endArrow=open;endFill=0;dashed=1;rounded=0;exitX=1;exitY=0.5;exitDx=0;exitDy=0;entryX=0.092;entryY=0.818;entryDx=0;entryDy=0;entryPerimeter=0;" parent="1" source="oR9qkToTt6fAtuaVTWsN-13" target="oR9qkToTt6fAtuaVTWsN-38" edge="1">
          <mxGeometry width="160" relative="1" as="geometry">
            <mxPoint x="495" y="5340" as="sourcePoint" />
            <mxPoint x="655" y="5340" as="targetPoint" />
            <Array as="points">
              <mxPoint x="565" y="5303" />
            </Array>
          </mxGeometry>
        </mxCell>
        <mxCell id="oR9qkToTt6fAtuaVTWsN-45" value="&amp;lt;&amp;lt;include&amp;gt;&amp;gt;" style="html=1;verticalAlign=bottom;labelBackgroundColor=none;endArrow=open;endFill=0;dashed=1;rounded=0;exitX=0.955;exitY=0.333;exitDx=0;exitDy=0;exitPerimeter=0;entryX=0;entryY=1;entryDx=0;entryDy=0;" parent="1" source="oR9qkToTt6fAtuaVTWsN-23" target="oR9qkToTt6fAtuaVTWsN-38" edge="1">
          <mxGeometry width="160" relative="1" as="geometry">
            <mxPoint x="490" y="5464.33" as="sourcePoint" />
            <mxPoint x="650" y="5464.33" as="targetPoint" />
            <Array as="points">
              <mxPoint x="625" y="5450" />
            </Array>
          </mxGeometry>
        </mxCell>
        <mxCell id="oR9qkToTt6fAtuaVTWsN-46" value="&amp;lt;&amp;lt;include&amp;gt;&amp;gt;" style="html=1;verticalAlign=bottom;labelBackgroundColor=none;endArrow=open;endFill=0;dashed=1;rounded=0;exitX=1;exitY=0.5;exitDx=0;exitDy=0;entryX=0.286;entryY=0.992;entryDx=0;entryDy=0;entryPerimeter=0;" parent="1" source="oR9qkToTt6fAtuaVTWsN-24" target="oR9qkToTt6fAtuaVTWsN-38" edge="1">
          <mxGeometry x="-0.6845" y="8" width="160" relative="1" as="geometry">
            <mxPoint x="655" y="5480" as="sourcePoint" />
            <mxPoint x="815" y="5480" as="targetPoint" />
            <Array as="points">
              <mxPoint x="625" y="5490" />
            </Array>
            <mxPoint as="offset" />
          </mxGeometry>
        </mxCell>
        <mxCell id="oR9qkToTt6fAtuaVTWsN-47" value="&amp;lt;&amp;lt;include&amp;gt;&amp;gt;" style="html=1;verticalAlign=bottom;labelBackgroundColor=none;endArrow=open;endFill=0;dashed=1;rounded=0;exitX=1;exitY=0.5;exitDx=0;exitDy=0;entryX=0.419;entryY=1.087;entryDx=0;entryDy=0;entryPerimeter=0;" parent="1" source="oR9qkToTt6fAtuaVTWsN-25" target="oR9qkToTt6fAtuaVTWsN-38" edge="1">
          <mxGeometry x="-0.8111" width="160" relative="1" as="geometry">
            <mxPoint x="655" y="5559.41" as="sourcePoint" />
            <mxPoint x="825" y="5320" as="targetPoint" />
            <Array as="points">
              <mxPoint x="585" y="5585" />
            </Array>
            <mxPoint as="offset" />
          </mxGeometry>
        </mxCell>
        <mxCell id="oR9qkToTt6fAtuaVTWsN-48" value="&amp;lt;&amp;lt;include&amp;gt;&amp;gt;" style="html=1;verticalAlign=bottom;labelBackgroundColor=none;endArrow=open;endFill=0;dashed=1;rounded=0;exitX=1;exitY=0.5;exitDx=0;exitDy=0;entryX=0.566;entryY=1.057;entryDx=0;entryDy=0;entryPerimeter=0;" parent="1" source="oR9qkToTt6fAtuaVTWsN-26" target="oR9qkToTt6fAtuaVTWsN-38" edge="1">
          <mxGeometry x="-0.8757" y="5" width="160" relative="1" as="geometry">
            <mxPoint x="575" y="5644.41" as="sourcePoint" />
            <mxPoint x="815" y="5320" as="targetPoint" />
            <Array as="points">
              <mxPoint x="595" y="5645" />
            </Array>
            <mxPoint as="offset" />
          </mxGeometry>
        </mxCell>
        <mxCell id="oR9qkToTt6fAtuaVTWsN-49" value="&amp;lt;&amp;lt;include&amp;gt;&amp;gt;" style="html=1;verticalAlign=bottom;labelBackgroundColor=none;endArrow=open;endFill=0;dashed=1;rounded=0;exitX=1;exitY=0.5;exitDx=0;exitDy=0;entryX=1;entryY=1;entryDx=0;entryDy=0;" parent="1" source="oR9qkToTt6fAtuaVTWsN-35" target="oR9qkToTt6fAtuaVTWsN-38" edge="1">
          <mxGeometry x="-0.8443" y="10" width="160" relative="1" as="geometry">
            <mxPoint x="595" y="5880" as="sourcePoint" />
            <mxPoint x="755" y="5880" as="targetPoint" />
            <Array as="points">
              <mxPoint x="675" y="5870" />
            </Array>
            <mxPoint as="offset" />
          </mxGeometry>
        </mxCell>
        <mxCell id="oR9qkToTt6fAtuaVTWsN-50" value="&amp;lt;&amp;lt;include&amp;gt;&amp;gt;" style="html=1;verticalAlign=bottom;labelBackgroundColor=none;endArrow=open;endFill=0;dashed=1;rounded=0;entryX=0.772;entryY=1.028;entryDx=0;entryDy=0;entryPerimeter=0;" parent="1" target="oR9qkToTt6fAtuaVTWsN-38" edge="1">
          <mxGeometry x="-0.8039" y="10" width="160" relative="1" as="geometry">
            <mxPoint x="460" y="5780" as="sourcePoint" />
            <mxPoint x="620" y="5780" as="targetPoint" />
            <Array as="points">
              <mxPoint x="595" y="5780" />
            </Array>
            <mxPoint as="offset" />
          </mxGeometry>
        </mxCell>
        <mxCell id="oR9qkToTt6fAtuaVTWsN-51" value="&amp;lt;&amp;lt;include&amp;gt;&amp;gt;" style="html=1;verticalAlign=bottom;labelBackgroundColor=none;endArrow=open;endFill=0;dashed=1;rounded=0;exitX=1;exitY=0.5;exitDx=0;exitDy=0;entryX=0.694;entryY=1.028;entryDx=0;entryDy=0;entryPerimeter=0;" parent="1" source="oR9qkToTt6fAtuaVTWsN-27" target="oR9qkToTt6fAtuaVTWsN-38" edge="1">
          <mxGeometry x="-0.8548" y="2" width="160" relative="1" as="geometry">
            <mxPoint x="540" y="5704.41" as="sourcePoint" />
            <mxPoint x="700" y="5704.41" as="targetPoint" />
            <Array as="points">
              <mxPoint x="585" y="5705" />
            </Array>
            <mxPoint x="-1" as="offset" />
          </mxGeometry>
        </mxCell>
        <mxCell id="oR9qkToTt6fAtuaVTWsN-52" value="Deconnecter" style="ellipse;whiteSpace=wrap;html=1;" parent="1" vertex="1">
          <mxGeometry x="835" y="5370" width="120" height="20" as="geometry" />
        </mxCell>
        <mxCell id="oR9qkToTt6fAtuaVTWsN-53" value="&amp;lt;&amp;lt;extend&amp;gt;&amp;gt;" style="html=1;verticalAlign=bottom;labelBackgroundColor=none;endArrow=open;endFill=0;dashed=1;rounded=0;entryX=1;entryY=0.5;entryDx=0;entryDy=0;exitX=0.65;exitY=-0.2;exitDx=0;exitDy=0;exitPerimeter=0;" parent="1" source="oR9qkToTt6fAtuaVTWsN-52" target="oR9qkToTt6fAtuaVTWsN-38" edge="1">
          <mxGeometry x="0.5239" width="160" relative="1" as="geometry">
            <mxPoint x="845" y="5360" as="sourcePoint" />
            <mxPoint x="1005" y="5360" as="targetPoint" />
            <Array as="points">
              <mxPoint x="915" y="5290" />
            </Array>
            <mxPoint as="offset" />
          </mxGeometry>
        </mxCell>
        <mxCell id="oR9qkToTt6fAtuaVTWsN-150" style="edgeStyle=none;rounded=0;orthogonalLoop=1;jettySize=auto;html=1;exitX=0;exitY=0.5;exitDx=0;exitDy=0;entryX=1;entryY=0.5;entryDx=0;entryDy=0;fontSize=14;endArrow=block;endFill=0;" parent="1" source="oR9qkToTt6fAtuaVTWsN-55" target="vN8HBcDRqM89FRdapi-8-20" edge="1">
          <mxGeometry relative="1" as="geometry" />
        </mxCell>
        <mxCell id="oR9qkToTt6fAtuaVTWsN-159" value="&amp;lt;&amp;lt;include&amp;gt;&amp;gt;" style="edgeStyle=none;rounded=0;orthogonalLoop=1;jettySize=auto;html=1;exitX=1;exitY=1;exitDx=0;exitDy=0;fontSize=14;endArrow=classic;endFill=1;dashed=1;" parent="1" source="oR9qkToTt6fAtuaVTWsN-55" target="oR9qkToTt6fAtuaVTWsN-154" edge="1">
          <mxGeometry relative="1" as="geometry">
            <Array as="points">
              <mxPoint x="1380" y="-100" />
            </Array>
          </mxGeometry>
        </mxCell>
        <mxCell id="oR9qkToTt6fAtuaVTWsN-55" value="&lt;div&gt;Rechercher un evenement &lt;br&gt;&lt;/div&gt;" style="html=1;overflow=block;blockSpacing=1;whiteSpace=wrap;ellipse;fontSize=13;spacing=3.8;strokeColor=#5e5e5e;strokeOpacity=100;rounded=1;absoluteArcSize=1;arcSize=9;strokeWidth=2.3;lucidId=.BitsejxpJ_f;" parent="1" vertex="1">
          <mxGeometry x="920" y="-190" width="260" height="90" as="geometry" />
        </mxCell>
        <mxCell id="oR9qkToTt6fAtuaVTWsN-152" style="edgeStyle=none;rounded=0;orthogonalLoop=1;jettySize=auto;html=1;exitX=0;exitY=0.5;exitDx=0;exitDy=0;fontSize=14;endArrow=block;endFill=0;" parent="1" source="oR9qkToTt6fAtuaVTWsN-56" edge="1">
          <mxGeometry relative="1" as="geometry">
            <mxPoint x="590" y="-100" as="targetPoint" />
          </mxGeometry>
        </mxCell>
        <mxCell id="oR9qkToTt6fAtuaVTWsN-157" value="&#xa;&amp;lt;&amp;lt;include&amp;gt;&amp;gt;&#xa;&#xa;" style="edgeStyle=none;rounded=0;orthogonalLoop=1;jettySize=auto;html=1;exitX=1;exitY=0.5;exitDx=0;exitDy=0;entryX=0;entryY=0.5;entryDx=0;entryDy=0;fontSize=14;endArrow=classic;endFill=1;dashed=1;" parent="1" source="oR9qkToTt6fAtuaVTWsN-56" target="oR9qkToTt6fAtuaVTWsN-154" edge="1">
          <mxGeometry relative="1" as="geometry" />
        </mxCell>
        <mxCell id="oR9qkToTt6fAtuaVTWsN-56" value="Filterr les evenements selon Prix d&#39;evenement /date d&#39;evenement" style="html=1;overflow=block;blockSpacing=1;whiteSpace=wrap;ellipse;fontSize=13;spacing=3.8;strokeColor=#5e5e5e;strokeOpacity=100;rounded=1;absoluteArcSize=1;arcSize=9;strokeWidth=2.3;lucidId=.BitsejxpJ_f;" parent="1" vertex="1">
          <mxGeometry x="920" width="250" height="90" as="geometry" />
        </mxCell>
        <mxCell id="oR9qkToTt6fAtuaVTWsN-247" style="edgeStyle=none;rounded=0;orthogonalLoop=1;jettySize=auto;html=1;exitX=1;exitY=0.5;exitDx=0;exitDy=0;entryX=1;entryY=0.5;entryDx=0;entryDy=0;dashed=1;fontSize=14;endArrow=classic;endFill=1;" parent="1" source="oR9qkToTt6fAtuaVTWsN-59" target="oR9qkToTt6fAtuaVTWsN-154" edge="1">
          <mxGeometry relative="1" as="geometry">
            <Array as="points">
              <mxPoint x="880" y="290" />
              <mxPoint x="1220" y="350" />
              <mxPoint x="1720" y="210" />
            </Array>
          </mxGeometry>
        </mxCell>
        <mxCell id="oR9qkToTt6fAtuaVTWsN-249" value="&amp;lt;&amp;lt;include&amp;gt;&amp;gt;" style="edgeLabel;html=1;align=center;verticalAlign=middle;resizable=0;points=[];fontSize=14;" parent="oR9qkToTt6fAtuaVTWsN-247" vertex="1" connectable="0">
          <mxGeometry x="0.1097" y="-4" relative="1" as="geometry">
            <mxPoint x="-1" as="offset" />
          </mxGeometry>
        </mxCell>
        <mxCell id="oR9qkToTt6fAtuaVTWsN-59" value="&lt;font style=&quot;font-size: 14px;&quot;&gt;Consulter profil de l&#39;organizateur&lt;/font&gt;" style="ellipse;whiteSpace=wrap;html=1;" parent="1" vertex="1">
          <mxGeometry x="385" y="100" width="230" height="90" as="geometry" />
        </mxCell>
        <mxCell id="oR9qkToTt6fAtuaVTWsN-220" style="edgeStyle=none;rounded=0;orthogonalLoop=1;jettySize=auto;html=1;exitX=0.5;exitY=1;exitDx=0;exitDy=0;entryX=0.666;entryY=0.019;entryDx=0;entryDy=0;entryPerimeter=0;fontSize=18;endArrow=block;endFill=0;" parent="1" source="oR9qkToTt6fAtuaVTWsN-60" target="vN8HBcDRqM89FRdapi-8-26" edge="1">
          <mxGeometry relative="1" as="geometry" />
        </mxCell>
        <mxCell id="oR9qkToTt6fAtuaVTWsN-60" value="Modifier le profil" style="ellipse;whiteSpace=wrap;html=1;" parent="1" vertex="1">
          <mxGeometry x="381.5" y="210" width="120" height="80" as="geometry" />
        </mxCell>
        <mxCell id="oR9qkToTt6fAtuaVTWsN-242" style="edgeStyle=none;rounded=0;orthogonalLoop=1;jettySize=auto;html=1;exitX=1;exitY=0.5;exitDx=0;exitDy=0;dashed=1;fontSize=14;endArrow=classic;endFill=1;" parent="1" source="oR9qkToTt6fAtuaVTWsN-64" target="oR9qkToTt6fAtuaVTWsN-161" edge="1">
          <mxGeometry relative="1" as="geometry">
            <Array as="points">
              <mxPoint x="990" y="600" />
            </Array>
          </mxGeometry>
        </mxCell>
        <mxCell id="oR9qkToTt6fAtuaVTWsN-243" value="&amp;lt;&amp;lt;include&amp;gt;&amp;gt;" style="edgeLabel;html=1;align=center;verticalAlign=middle;resizable=0;points=[];fontSize=14;" parent="oR9qkToTt6fAtuaVTWsN-242" vertex="1" connectable="0">
          <mxGeometry x="-0.3793" y="2" relative="1" as="geometry">
            <mxPoint x="1" as="offset" />
          </mxGeometry>
        </mxCell>
        <mxCell id="oR9qkToTt6fAtuaVTWsN-64" value="Reserver un evenement" style="ellipse;whiteSpace=wrap;html=1;" parent="1" vertex="1">
          <mxGeometry x="641.5" y="580" width="120" height="80" as="geometry" />
        </mxCell>
        <mxCell id="oR9qkToTt6fAtuaVTWsN-231" value="&amp;lt;&amp;lt;include&amp;gt;&amp;gt;" style="edgeStyle=none;rounded=0;orthogonalLoop=1;jettySize=auto;html=1;exitX=1;exitY=0.5;exitDx=0;exitDy=0;entryX=0.056;entryY=0.727;entryDx=0;entryDy=0;entryPerimeter=0;dashed=1;fontSize=18;endArrow=open;endFill=0;" parent="1" source="oR9qkToTt6fAtuaVTWsN-66" target="oR9qkToTt6fAtuaVTWsN-64" edge="1">
          <mxGeometry relative="1" as="geometry">
            <mxPoint x="445" y="669.9999999999995" as="sourcePoint" />
            <mxPoint x="570.6400000000001" y="592.8800000000001" as="targetPoint" />
          </mxGeometry>
        </mxCell>
        <mxCell id="oR9qkToTt6fAtuaVTWsN-66" value="Remboursement ticket" style="ellipse;whiteSpace=wrap;html=1;" parent="1" vertex="1">
          <mxGeometry x="370" y="580" width="120" height="80" as="geometry" />
        </mxCell>
        <mxCell id="oR9qkToTt6fAtuaVTWsN-232" value="&lt;font style=&quot;font-size: 14px;&quot;&gt;&amp;lt;&amp;lt;include&amp;gt;&amp;gt;&lt;br&gt;&lt;/font&gt;" style="edgeStyle=none;rounded=0;orthogonalLoop=1;jettySize=auto;html=1;exitX=1;exitY=0.5;exitDx=0;exitDy=0;entryX=0.38;entryY=0.992;entryDx=0;entryDy=0;entryPerimeter=0;dashed=1;fontSize=18;endArrow=open;endFill=0;" parent="1" source="oR9qkToTt6fAtuaVTWsN-69" target="oR9qkToTt6fAtuaVTWsN-64" edge="1">
          <mxGeometry x="-0.0373" y="-4" relative="1" as="geometry">
            <mxPoint as="offset" />
          </mxGeometry>
        </mxCell>
        <mxCell id="oR9qkToTt6fAtuaVTWsN-233" style="edgeStyle=none;rounded=0;orthogonalLoop=1;jettySize=auto;html=1;exitX=0;exitY=0;exitDx=0;exitDy=0;fontSize=14;endArrow=none;endFill=0;" parent="1" source="oR9qkToTt6fAtuaVTWsN-69" edge="1">
          <mxGeometry relative="1" as="geometry">
            <mxPoint x="230" y="470" as="targetPoint" />
          </mxGeometry>
        </mxCell>
        <mxCell id="oR9qkToTt6fAtuaVTWsN-69" value="TÃ©lÃ©charger code QR" style="ellipse;whiteSpace=wrap;html=1;" parent="1" vertex="1">
          <mxGeometry x="375" y="690" width="120" height="80" as="geometry" />
        </mxCell>
        <mxCell id="oR9qkToTt6fAtuaVTWsN-153" style="edgeStyle=none;rounded=0;orthogonalLoop=1;jettySize=auto;html=1;exitX=0;exitY=0.5;exitDx=0;exitDy=0;fontSize=14;endArrow=block;endFill=0;" parent="1" source="oR9qkToTt6fAtuaVTWsN-71" edge="1">
          <mxGeometry relative="1" as="geometry">
            <mxPoint x="590" y="-90" as="targetPoint" />
          </mxGeometry>
        </mxCell>
        <mxCell id="oR9qkToTt6fAtuaVTWsN-156" value="&#xa;&amp;lt;&amp;lt;include&amp;gt;&amp;gt;&#xa;&#xa;" style="edgeStyle=none;rounded=0;orthogonalLoop=1;jettySize=auto;html=1;exitX=1;exitY=0.5;exitDx=0;exitDy=0;entryX=0.5;entryY=1;entryDx=0;entryDy=0;fontSize=14;endArrow=classic;endFill=1;dashed=1;" parent="1" source="oR9qkToTt6fAtuaVTWsN-71" target="oR9qkToTt6fAtuaVTWsN-154" edge="1">
          <mxGeometry relative="1" as="geometry" />
        </mxCell>
        <mxCell id="oR9qkToTt6fAtuaVTWsN-71" value="Partager un evenement" style="ellipse;whiteSpace=wrap;html=1;" parent="1" vertex="1">
          <mxGeometry x="955" y="110" width="201" height="80" as="geometry" />
        </mxCell>
        <mxCell id="oR9qkToTt6fAtuaVTWsN-151" style="edgeStyle=none;rounded=0;orthogonalLoop=1;jettySize=auto;html=1;exitX=0;exitY=0.5;exitDx=0;exitDy=0;entryX=1;entryY=0.5;entryDx=0;entryDy=0;fontSize=14;endArrow=block;endFill=0;" parent="1" source="oR9qkToTt6fAtuaVTWsN-74" target="vN8HBcDRqM89FRdapi-8-20" edge="1">
          <mxGeometry relative="1" as="geometry" />
        </mxCell>
        <mxCell id="oR9qkToTt6fAtuaVTWsN-158" value="&#xa;&amp;lt;&amp;lt;include&amp;gt;&amp;gt;&#xa;&#xa;" style="edgeStyle=none;rounded=0;orthogonalLoop=1;jettySize=auto;html=1;exitX=1;exitY=0.5;exitDx=0;exitDy=0;fontSize=14;endArrow=classic;endFill=1;dashed=1;" parent="1" source="oR9qkToTt6fAtuaVTWsN-74" edge="1">
          <mxGeometry relative="1" as="geometry">
            <mxPoint x="1610" y="-40" as="targetPoint" />
          </mxGeometry>
        </mxCell>
        <mxCell id="oR9qkToTt6fAtuaVTWsN-74" value="Ajouter au favoris" style="html=1;overflow=block;blockSpacing=1;whiteSpace=wrap;ellipse;fontSize=13;spacing=3.8;strokeColor=#5e5e5e;strokeOpacity=100;rounded=1;absoluteArcSize=1;arcSize=9;strokeWidth=2.3;lucidId=.BitsejxpJ_f;" parent="1" vertex="1">
          <mxGeometry x="940" y="-80" width="220" height="60" as="geometry" />
        </mxCell>
        <mxCell id="oR9qkToTt6fAtuaVTWsN-210" style="edgeStyle=none;rounded=0;orthogonalLoop=1;jettySize=auto;html=1;exitX=0;exitY=0.5;exitDx=0;exitDy=0;entryX=0.93;entryY=0.178;entryDx=0;entryDy=0;entryPerimeter=0;fontSize=18;endArrow=block;endFill=0;" parent="1" source="oR9qkToTt6fAtuaVTWsN-87" target="vN8HBcDRqM89FRdapi-8-12" edge="1">
          <mxGeometry relative="1" as="geometry" />
        </mxCell>
        <mxCell id="oR9qkToTt6fAtuaVTWsN-254" style="edgeStyle=none;rounded=0;orthogonalLoop=1;jettySize=auto;html=1;exitX=1;exitY=0.5;exitDx=0;exitDy=0;entryX=0.367;entryY=0.033;entryDx=0;entryDy=0;entryPerimeter=0;dashed=1;fontSize=14;endArrow=classic;endFill=1;" parent="1" source="oR9qkToTt6fAtuaVTWsN-87" target="oR9qkToTt6fAtuaVTWsN-167" edge="1">
          <mxGeometry relative="1" as="geometry" />
        </mxCell>
        <mxCell id="oR9qkToTt6fAtuaVTWsN-259" value="&amp;lt;&amp;lt;include&amp;gt;&amp;gt;" style="edgeLabel;html=1;align=center;verticalAlign=middle;resizable=0;points=[];fontSize=14;" parent="oR9qkToTt6fAtuaVTWsN-254" vertex="1" connectable="0">
          <mxGeometry x="-0.2677" y="-5" relative="1" as="geometry">
            <mxPoint as="offset" />
          </mxGeometry>
        </mxCell>
        <mxCell id="oR9qkToTt6fAtuaVTWsN-87" value="Supprimer Ã©venement " style="html=1;overflow=block;blockSpacing=1;whiteSpace=wrap;ellipse;fontSize=13;spacing=3.8;strokeColor=#5e5e5e;strokeOpacity=100;rounded=1;absoluteArcSize=1;arcSize=9;strokeWidth=2.3;lucidId=.BitsejxpJ_f;" parent="1" vertex="1">
          <mxGeometry x="870" y="2130" width="195" height="90" as="geometry" />
        </mxCell>
        <mxCell id="oR9qkToTt6fAtuaVTWsN-182" style="edgeStyle=none;rounded=0;orthogonalLoop=1;jettySize=auto;html=1;exitX=0.5;exitY=1;exitDx=0;exitDy=0;entryX=0.5;entryY=0;entryDx=0;entryDy=0;fontSize=14;endArrow=block;endFill=0;" parent="1" source="oR9qkToTt6fAtuaVTWsN-95" target="vN8HBcDRqM89FRdapi-8-54" edge="1">
          <mxGeometry relative="1" as="geometry" />
        </mxCell>
        <mxCell id="oR9qkToTt6fAtuaVTWsN-95" value="Supprimer des comptes" style="html=1;overflow=block;blockSpacing=1;whiteSpace=wrap;ellipse;fontSize=13;spacing=3.8;strokeColor=#5e5e5e;strokeOpacity=100;rounded=1;absoluteArcSize=1;arcSize=9;strokeWidth=2.3;lucidId=UEmtKaLi1W1V;" parent="1" vertex="1">
          <mxGeometry x="545" y="3240" width="210" height="75" as="geometry" />
        </mxCell>
        <mxCell id="oR9qkToTt6fAtuaVTWsN-184" style="edgeStyle=none;rounded=0;orthogonalLoop=1;jettySize=auto;html=1;exitX=0;exitY=1;exitDx=0;exitDy=0;entryX=1;entryY=0;entryDx=0;entryDy=0;fontSize=14;endArrow=block;endFill=0;" parent="1" source="oR9qkToTt6fAtuaVTWsN-96" target="vN8HBcDRqM89FRdapi-8-54" edge="1">
          <mxGeometry relative="1" as="geometry" />
        </mxCell>
        <mxCell id="oR9qkToTt6fAtuaVTWsN-96" value="Consulter le profil" style="html=1;overflow=block;blockSpacing=1;whiteSpace=wrap;ellipse;fontSize=13;spacing=3.8;strokeColor=#5e5e5e;strokeOpacity=100;rounded=1;absoluteArcSize=1;arcSize=9;strokeWidth=2.3;lucidId=9EmtDgn2g~nr;" parent="1" vertex="1">
          <mxGeometry x="800" y="3260" width="210" height="75" as="geometry" />
        </mxCell>
        <mxCell id="oR9qkToTt6fAtuaVTWsN-185" style="edgeStyle=none;rounded=0;orthogonalLoop=1;jettySize=auto;html=1;exitX=0;exitY=0.5;exitDx=0;exitDy=0;entryX=1;entryY=0.5;entryDx=0;entryDy=0;fontSize=14;endArrow=block;endFill=0;" parent="1" source="oR9qkToTt6fAtuaVTWsN-97" target="vN8HBcDRqM89FRdapi-8-54" edge="1">
          <mxGeometry relative="1" as="geometry" />
        </mxCell>
        <mxCell id="oR9qkToTt6fAtuaVTWsN-97" value="Modifier des comptes" style="html=1;overflow=block;blockSpacing=1;whiteSpace=wrap;ellipse;fontSize=13;spacing=3.8;strokeColor=#5e5e5e;strokeOpacity=100;rounded=1;absoluteArcSize=1;arcSize=9;strokeWidth=2.3;lucidId=lFmtOqZzf6Zj;" parent="1" vertex="1">
          <mxGeometry x="920" y="3360" width="210" height="75" as="geometry" />
        </mxCell>
        <mxCell id="oR9qkToTt6fAtuaVTWsN-188" style="edgeStyle=none;rounded=0;orthogonalLoop=1;jettySize=auto;html=1;exitX=0.5;exitY=0;exitDx=0;exitDy=0;entryX=0.934;entryY=0.755;entryDx=0;entryDy=0;entryPerimeter=0;fontSize=14;endArrow=block;endFill=0;" parent="1" source="oR9qkToTt6fAtuaVTWsN-102" target="vN8HBcDRqM89FRdapi-8-57" edge="1">
          <mxGeometry relative="1" as="geometry" />
        </mxCell>
        <mxCell id="oR9qkToTt6fAtuaVTWsN-102" value="Ajouter Artists" style="html=1;overflow=block;blockSpacing=1;whiteSpace=wrap;ellipse;fontSize=13;spacing=3.8;strokeColor=#5e5e5e;strokeOpacity=100;rounded=1;absoluteArcSize=1;arcSize=9;strokeWidth=2.3;lucidId=9Cmt3dIYTxuM;" parent="1" vertex="1">
          <mxGeometry x="859" y="3830" width="165" height="55" as="geometry" />
        </mxCell>
        <mxCell id="oR9qkToTt6fAtuaVTWsN-186" style="edgeStyle=none;rounded=0;orthogonalLoop=1;jettySize=auto;html=1;exitX=0.5;exitY=0;exitDx=0;exitDy=0;entryX=0.582;entryY=0.997;entryDx=0;entryDy=0;entryPerimeter=0;fontSize=14;endArrow=block;endFill=0;" parent="1" source="oR9qkToTt6fAtuaVTWsN-103" target="vN8HBcDRqM89FRdapi-8-57" edge="1">
          <mxGeometry relative="1" as="geometry" />
        </mxCell>
        <mxCell id="oR9qkToTt6fAtuaVTWsN-103" value="Supprimer Artists" style="html=1;overflow=block;blockSpacing=1;whiteSpace=wrap;ellipse;fontSize=13;spacing=3.8;strokeColor=#5e5e5e;strokeOpacity=100;rounded=1;absoluteArcSize=1;arcSize=9;strokeWidth=2.3;lucidId=9Cmt3dIYTxuM;" parent="1" vertex="1">
          <mxGeometry x="670" y="3830" width="165" height="55" as="geometry" />
        </mxCell>
        <mxCell id="oR9qkToTt6fAtuaVTWsN-187" style="edgeStyle=none;rounded=0;orthogonalLoop=1;jettySize=auto;html=1;exitX=0.5;exitY=0;exitDx=0;exitDy=0;fontSize=14;endArrow=block;endFill=0;" parent="1" source="oR9qkToTt6fAtuaVTWsN-104" target="vN8HBcDRqM89FRdapi-8-57" edge="1">
          <mxGeometry relative="1" as="geometry" />
        </mxCell>
        <mxCell id="oR9qkToTt6fAtuaVTWsN-104" value="Modifier Artists" style="html=1;overflow=block;blockSpacing=1;whiteSpace=wrap;ellipse;fontSize=13;spacing=3.8;strokeColor=#5e5e5e;strokeOpacity=100;rounded=1;absoluteArcSize=1;arcSize=9;strokeWidth=2.3;lucidId=9Cmt3dIYTxuM;" parent="1" vertex="1">
          <mxGeometry x="500" y="3840" width="164" height="55" as="geometry" />
        </mxCell>
        <mxCell id="oR9qkToTt6fAtuaVTWsN-234" style="edgeStyle=none;rounded=0;orthogonalLoop=1;jettySize=auto;html=1;exitX=0;exitY=0.5;exitDx=0;exitDy=0;entryX=1;entryY=0.3333333333333333;entryDx=0;entryDy=0;entryPerimeter=0;fontSize=14;endArrow=none;endFill=0;" parent="1" source="oR9qkToTt6fAtuaVTWsN-109" target="vN8HBcDRqM89FRdapi-8-21" edge="1">
          <mxGeometry relative="1" as="geometry" />
        </mxCell>
        <mxCell id="oR9qkToTt6fAtuaVTWsN-239" value="&amp;lt;&amp;lt;include&amp;gt;&amp;gt;" style="edgeStyle=none;rounded=0;orthogonalLoop=1;jettySize=auto;html=1;exitX=0.5;exitY=1;exitDx=0;exitDy=0;dashed=1;fontSize=14;endArrow=classic;endFill=1;" parent="1" source="oR9qkToTt6fAtuaVTWsN-109" target="oR9qkToTt6fAtuaVTWsN-161" edge="1">
          <mxGeometry relative="1" as="geometry" />
        </mxCell>
        <mxCell id="oR9qkToTt6fAtuaVTWsN-109" value="Chercher des utilisateur" style="ellipse;whiteSpace=wrap;html=1;" parent="1" vertex="1">
          <mxGeometry x="375" y="810" width="120" height="80" as="geometry" />
        </mxCell>
        <mxCell id="oR9qkToTt6fAtuaVTWsN-238" value="&amp;lt;&amp;lt;include&amp;gt;&amp;gt;" style="edgeStyle=none;rounded=0;orthogonalLoop=1;jettySize=auto;html=1;exitX=1;exitY=0.5;exitDx=0;exitDy=0;dashed=1;fontSize=14;endArrow=classic;endFill=1;entryX=0.01;entryY=0.648;entryDx=0;entryDy=0;entryPerimeter=0;" parent="1" source="oR9qkToTt6fAtuaVTWsN-111" target="oR9qkToTt6fAtuaVTWsN-161" edge="1">
          <mxGeometry relative="1" as="geometry">
            <mxPoint x="1000" y="975.2352941176473" as="targetPoint" />
          </mxGeometry>
        </mxCell>
        <mxCell id="oR9qkToTt6fAtuaVTWsN-111" value="discuter avec l&#39;oganizateur pour feedback / rÃ©clamation" style="ellipse;whiteSpace=wrap;html=1;" parent="1" vertex="1">
          <mxGeometry x="335" y="920" width="150" height="110" as="geometry" />
        </mxCell>
        <mxCell id="oR9qkToTt6fAtuaVTWsN-209" style="edgeStyle=none;rounded=0;orthogonalLoop=1;jettySize=auto;html=1;exitX=0;exitY=0;exitDx=0;exitDy=0;fontSize=18;endArrow=none;endFill=0;entryX=1;entryY=1;entryDx=0;entryDy=0;entryPerimeter=0;" parent="1" source="oR9qkToTt6fAtuaVTWsN-114" target="Xd1Pg4iGhiYPtQFeeaUK-102" edge="1">
          <mxGeometry relative="1" as="geometry">
            <mxPoint x="170" y="2220" as="targetPoint" />
          </mxGeometry>
        </mxCell>
        <mxCell id="oR9qkToTt6fAtuaVTWsN-251" style="edgeStyle=none;rounded=0;orthogonalLoop=1;jettySize=auto;html=1;exitX=1;exitY=0.5;exitDx=0;exitDy=0;entryX=0;entryY=1;entryDx=0;entryDy=0;dashed=1;fontSize=14;endArrow=classic;endFill=1;" parent="1" source="oR9qkToTt6fAtuaVTWsN-114" target="oR9qkToTt6fAtuaVTWsN-167" edge="1">
          <mxGeometry relative="1" as="geometry">
            <Array as="points">
              <mxPoint x="950" y="2500" />
            </Array>
          </mxGeometry>
        </mxCell>
        <mxCell id="oR9qkToTt6fAtuaVTWsN-262" value="&amp;lt;&amp;lt;include&amp;gt;&amp;gt;" style="edgeLabel;html=1;align=center;verticalAlign=middle;resizable=0;points=[];fontSize=14;" parent="oR9qkToTt6fAtuaVTWsN-251" vertex="1" connectable="0">
          <mxGeometry x="0.2633" relative="1" as="geometry">
            <mxPoint x="1" as="offset" />
          </mxGeometry>
        </mxCell>
        <mxCell id="oR9qkToTt6fAtuaVTWsN-114" value="Recevoir des messages par les utlisisateurs selon le type d&#39;evenemts" style="ellipse;whiteSpace=wrap;html=1;" parent="1" vertex="1">
          <mxGeometry x="366.5" y="2400" width="260" height="80" as="geometry" />
        </mxCell>
        <mxCell id="oR9qkToTt6fAtuaVTWsN-116" style="edgeStyle=orthogonalEdgeStyle;rounded=0;orthogonalLoop=1;jettySize=auto;html=1;exitX=0.5;exitY=0;exitDx=0;exitDy=0;endArrow=block;endFill=0;" parent="1" source="oR9qkToTt6fAtuaVTWsN-115" target="oR9qkToTt6fAtuaVTWsN-114" edge="1">
          <mxGeometry relative="1" as="geometry" />
        </mxCell>
        <mxCell id="oR9qkToTt6fAtuaVTWsN-115" value="&lt;div&gt;Filtrer les messages selons type de message (Feedback/reclamation)&lt;/div&gt;" style="ellipse;whiteSpace=wrap;html=1;" parent="1" vertex="1">
          <mxGeometry x="400" y="2520" width="270" height="80" as="geometry" />
        </mxCell>
        <mxCell id="oR9qkToTt6fAtuaVTWsN-250" style="edgeStyle=none;rounded=0;orthogonalLoop=1;jettySize=auto;html=1;exitX=1;exitY=0.5;exitDx=0;exitDy=0;entryX=0.5;entryY=1;entryDx=0;entryDy=0;dashed=1;fontSize=14;endArrow=classic;endFill=1;" parent="1" source="oR9qkToTt6fAtuaVTWsN-118" target="oR9qkToTt6fAtuaVTWsN-167" edge="1">
          <mxGeometry relative="1" as="geometry" />
        </mxCell>
        <mxCell id="oR9qkToTt6fAtuaVTWsN-263" value="&amp;lt;&amp;lt;include&amp;gt;&amp;gt;" style="edgeLabel;html=1;align=center;verticalAlign=middle;resizable=0;points=[];fontSize=14;" parent="oR9qkToTt6fAtuaVTWsN-250" vertex="1" connectable="0">
          <mxGeometry x="0.2465" y="1" relative="1" as="geometry">
            <mxPoint as="offset" />
          </mxGeometry>
        </mxCell>
        <mxCell id="oR9qkToTt6fAtuaVTWsN-118" value="&lt;div&gt;Ajouter Portier au evenement&lt;/div&gt;&lt;div&gt;&lt;br&gt;&lt;/div&gt;" style="ellipse;whiteSpace=wrap;html=1;" parent="1" vertex="1">
          <mxGeometry x="417" y="2650" width="193" height="80" as="geometry" />
        </mxCell>
        <mxCell id="oR9qkToTt6fAtuaVTWsN-141" value="&#xa;&amp;lt;&amp;lt;extend&amp;gt;&amp;gt;&#xa;&#xa;" style="edgeStyle=none;rounded=0;orthogonalLoop=1;jettySize=auto;html=1;exitX=0;exitY=1;exitDx=0;exitDy=0;entryX=1;entryY=0.5;entryDx=0;entryDy=0;fontSize=14;dashed=1;" parent="1" source="oR9qkToTt6fAtuaVTWsN-129" target="oR9qkToTt6fAtuaVTWsN-55" edge="1">
          <mxGeometry relative="1" as="geometry" />
        </mxCell>
        <mxCell id="oR9qkToTt6fAtuaVTWsN-129" value="&lt;div&gt;Selon &lt;font style=&quot;font-size: 24px;&quot;&gt;organizateur&lt;/font&gt;&lt;/div&gt;&lt;div&gt;&lt;font style=&quot;font-size: 24px;&quot;&gt;&lt;br&gt;&lt;/font&gt;&lt;/div&gt;" style="ellipse;whiteSpace=wrap;html=1;fontSize=24;" parent="1" vertex="1">
          <mxGeometry x="1241" y="-380" width="150" height="90" as="geometry" />
        </mxCell>
        <mxCell id="oR9qkToTt6fAtuaVTWsN-138" value="&amp;lt;&amp;lt;extend&amp;gt;&amp;gt;" style="edgeStyle=none;rounded=0;orthogonalLoop=1;jettySize=auto;html=1;exitX=0.5;exitY=1;exitDx=0;exitDy=0;entryX=0.5;entryY=0;entryDx=0;entryDy=0;fontSize=14;dashed=1;" parent="1" source="oR9qkToTt6fAtuaVTWsN-131" target="oR9qkToTt6fAtuaVTWsN-55" edge="1">
          <mxGeometry relative="1" as="geometry" />
        </mxCell>
        <mxCell id="oR9qkToTt6fAtuaVTWsN-131" value="Selon artists" style="ellipse;whiteSpace=wrap;html=1;fontSize=24;" parent="1" vertex="1">
          <mxGeometry x="935" y="-360" width="120" height="80" as="geometry" />
        </mxCell>
        <mxCell id="oR9qkToTt6fAtuaVTWsN-139" style="edgeStyle=none;rounded=0;orthogonalLoop=1;jettySize=auto;html=1;exitX=0.5;exitY=1;exitDx=0;exitDy=0;entryX=0.295;entryY=0.027;entryDx=0;entryDy=0;entryPerimeter=0;fontSize=14;dashed=1;" parent="1" source="oR9qkToTt6fAtuaVTWsN-132" target="oR9qkToTt6fAtuaVTWsN-55" edge="1">
          <mxGeometry relative="1" as="geometry" />
        </mxCell>
        <mxCell id="oR9qkToTt6fAtuaVTWsN-144" value="&amp;lt;&amp;lt;extend&amp;gt;&amp;gt;" style="edgeLabel;html=1;align=center;verticalAlign=middle;resizable=0;points=[];fontSize=14;" parent="oR9qkToTt6fAtuaVTWsN-139" vertex="1" connectable="0">
          <mxGeometry x="-0.3681" y="1" relative="1" as="geometry">
            <mxPoint as="offset" />
          </mxGeometry>
        </mxCell>
        <mxCell id="oR9qkToTt6fAtuaVTWsN-132" value="Selon nom d&#39;evenement" style="ellipse;whiteSpace=wrap;html=1;fontSize=24;" parent="1" vertex="1">
          <mxGeometry x="755" y="-330" width="160" height="100" as="geometry" />
        </mxCell>
        <mxCell id="oR9qkToTt6fAtuaVTWsN-143" style="edgeStyle=none;rounded=0;orthogonalLoop=1;jettySize=auto;html=1;exitX=0;exitY=0.5;exitDx=0;exitDy=0;fontSize=14;dashed=1;" parent="1" source="oR9qkToTt6fAtuaVTWsN-133" target="oR9qkToTt6fAtuaVTWsN-55" edge="1">
          <mxGeometry relative="1" as="geometry" />
        </mxCell>
        <mxCell id="oR9qkToTt6fAtuaVTWsN-148" value="&amp;lt;&amp;lt;extend&amp;gt;&amp;gt;" style="edgeLabel;html=1;align=center;verticalAlign=middle;resizable=0;points=[];fontSize=14;" parent="oR9qkToTt6fAtuaVTWsN-143" vertex="1" connectable="0">
          <mxGeometry x="-0.4417" y="-4" relative="1" as="geometry">
            <mxPoint as="offset" />
          </mxGeometry>
        </mxCell>
        <mxCell id="oR9qkToTt6fAtuaVTWsN-133" value="&lt;div&gt;Selon &lt;font style=&quot;font-size: 24px;&quot;&gt;Date&lt;/font&gt;&lt;/div&gt;&lt;div&gt;&lt;font style=&quot;font-size: 24px;&quot;&gt;&lt;br&gt;&lt;/font&gt;&lt;/div&gt;" style="ellipse;whiteSpace=wrap;html=1;fontSize=24;" parent="1" vertex="1">
          <mxGeometry x="1440" y="-200" width="150" height="80" as="geometry" />
        </mxCell>
        <mxCell id="oR9qkToTt6fAtuaVTWsN-140" value="&#xa;&amp;lt;&amp;lt;extend&amp;gt;&amp;gt;&#xa;&#xa;" style="edgeStyle=none;rounded=0;orthogonalLoop=1;jettySize=auto;html=1;exitX=0;exitY=1;exitDx=0;exitDy=0;entryX=1;entryY=0;entryDx=0;entryDy=0;fontSize=14;dashed=1;" parent="1" source="oR9qkToTt6fAtuaVTWsN-135" target="oR9qkToTt6fAtuaVTWsN-55" edge="1">
          <mxGeometry relative="1" as="geometry" />
        </mxCell>
        <mxCell id="oR9qkToTt6fAtuaVTWsN-135" value="&lt;div&gt;Selon &lt;font style=&quot;font-size: 24px;&quot;&gt;Emplacement&lt;/font&gt;&lt;/div&gt;&lt;div&gt;&lt;font style=&quot;font-size: 24px;&quot;&gt;&lt;br&gt;&lt;/font&gt;&lt;/div&gt;" style="ellipse;whiteSpace=wrap;html=1;fontSize=24;" parent="1" vertex="1">
          <mxGeometry x="1080" y="-380" width="150" height="90" as="geometry" />
        </mxCell>
        <mxCell id="oR9qkToTt6fAtuaVTWsN-142" value="&#xa;&amp;lt;&amp;lt;extend&amp;gt;&amp;gt;&#xa;&#xa;" style="edgeStyle=none;rounded=0;orthogonalLoop=1;jettySize=auto;html=1;exitX=0;exitY=0.5;exitDx=0;exitDy=0;entryX=1;entryY=0.5;entryDx=0;entryDy=0;fontSize=14;dashed=1;" parent="1" source="oR9qkToTt6fAtuaVTWsN-136" target="oR9qkToTt6fAtuaVTWsN-55" edge="1">
          <mxGeometry relative="1" as="geometry" />
        </mxCell>
        <mxCell id="oR9qkToTt6fAtuaVTWsN-136" value="&lt;div&gt;Selon &lt;font style=&quot;font-size: 24px;&quot;&gt;Categories&lt;/font&gt;&lt;/div&gt;&lt;div&gt;&lt;font style=&quot;font-size: 24px;&quot;&gt;&lt;br&gt;&lt;/font&gt;&lt;/div&gt;" style="ellipse;whiteSpace=wrap;html=1;fontSize=24;" parent="1" vertex="1">
          <mxGeometry x="1275" y="-270" width="150" height="90" as="geometry" />
        </mxCell>
        <mxCell id="oR9qkToTt6fAtuaVTWsN-154" value="S&#39;authentifier" style="html=1;overflow=block;blockSpacing=1;whiteSpace=wrap;ellipse;fontSize=13;spacing=3.8;strokeColor=#5e5e5e;strokeOpacity=100;rounded=1;absoluteArcSize=1;arcSize=9;strokeWidth=2.3;lucidId=XvitAHHM73nt;" parent="1" vertex="1">
          <mxGeometry x="1610" y="-80" width="120" height="90" as="geometry" />
        </mxCell>
        <mxCell id="oR9qkToTt6fAtuaVTWsN-160" value="&amp;lt;&amp;lt;extend&amp;gt;&amp;gt;" style="edgeStyle=none;rounded=0;orthogonalLoop=1;jettySize=auto;html=1;exitX=0.5;exitY=1;exitDx=0;exitDy=0;entryX=1;entryY=0;entryDx=0;entryDy=0;fontSize=14;endArrow=classic;endFill=1;dashed=1;" parent="1" source="oR9qkToTt6fAtuaVTWsN-155" target="oR9qkToTt6fAtuaVTWsN-154" edge="1">
          <mxGeometry relative="1" as="geometry" />
        </mxCell>
        <mxCell id="oR9qkToTt6fAtuaVTWsN-155" value="Deconnecter" style="html=1;overflow=block;blockSpacing=1;whiteSpace=wrap;ellipse;fontSize=13;spacing=3.8;strokeColor=#5e5e5e;strokeOpacity=100;rounded=1;absoluteArcSize=1;arcSize=9;strokeWidth=2.3;lucidId=XvitmW9DInrr;" parent="1" vertex="1">
          <mxGeometry x="1750" y="-240" width="120" height="90" as="geometry" />
        </mxCell>
        <mxCell id="oR9qkToTt6fAtuaVTWsN-161" value="S&#39;authentifier" style="html=1;overflow=block;blockSpacing=1;whiteSpace=wrap;ellipse;fontSize=13;spacing=3.8;strokeColor=#5e5e5e;strokeOpacity=100;rounded=1;absoluteArcSize=1;arcSize=9;strokeWidth=2.3;lucidId=XvitAHHM73nt;" parent="1" vertex="1">
          <mxGeometry x="1036" y="900" width="120" height="90" as="geometry" />
        </mxCell>
        <mxCell id="oR9qkToTt6fAtuaVTWsN-162" value="&amp;lt;&amp;lt;extend&amp;gt;&amp;gt;" style="edgeStyle=none;rounded=0;orthogonalLoop=1;jettySize=auto;html=1;exitX=0.5;exitY=1;exitDx=0;exitDy=0;entryX=1;entryY=0;entryDx=0;entryDy=0;fontSize=14;endArrow=classic;endFill=1;dashed=1;" parent="1" source="oR9qkToTt6fAtuaVTWsN-163" target="oR9qkToTt6fAtuaVTWsN-161" edge="1">
          <mxGeometry relative="1" as="geometry" />
        </mxCell>
        <mxCell id="oR9qkToTt6fAtuaVTWsN-163" value="Deconnecter" style="html=1;overflow=block;blockSpacing=1;whiteSpace=wrap;ellipse;fontSize=13;spacing=3.8;strokeColor=#5e5e5e;strokeOpacity=100;rounded=1;absoluteArcSize=1;arcSize=9;strokeWidth=2.3;lucidId=XvitmW9DInrr;" parent="1" vertex="1">
          <mxGeometry x="1155" y="770" width="120" height="90" as="geometry" />
        </mxCell>
        <mxCell id="oR9qkToTt6fAtuaVTWsN-164" value="S&#39;authentifier" style="html=1;overflow=block;blockSpacing=1;whiteSpace=wrap;ellipse;fontSize=13;spacing=3.8;strokeColor=#5e5e5e;strokeOpacity=100;rounded=1;absoluteArcSize=1;arcSize=9;strokeWidth=2.3;lucidId=XvitAHHM73nt;" parent="1" vertex="1">
          <mxGeometry x="1100" y="1570" width="120" height="90" as="geometry" />
        </mxCell>
        <mxCell id="oR9qkToTt6fAtuaVTWsN-165" value="&amp;lt;&amp;lt;extend&amp;gt;&amp;gt;" style="edgeStyle=none;rounded=0;orthogonalLoop=1;jettySize=auto;html=1;exitX=0.5;exitY=1;exitDx=0;exitDy=0;entryX=1;entryY=0;entryDx=0;entryDy=0;fontSize=14;endArrow=classic;endFill=1;dashed=1;" parent="1" source="oR9qkToTt6fAtuaVTWsN-166" target="oR9qkToTt6fAtuaVTWsN-164" edge="1">
          <mxGeometry relative="1" as="geometry" />
        </mxCell>
        <mxCell id="oR9qkToTt6fAtuaVTWsN-166" value="Deconnecter" style="html=1;overflow=block;blockSpacing=1;whiteSpace=wrap;ellipse;fontSize=13;spacing=3.8;strokeColor=#5e5e5e;strokeOpacity=100;rounded=1;absoluteArcSize=1;arcSize=9;strokeWidth=2.3;lucidId=XvitmW9DInrr;" parent="1" vertex="1">
          <mxGeometry x="1240" y="1410" width="120" height="90" as="geometry" />
        </mxCell>
        <mxCell id="oR9qkToTt6fAtuaVTWsN-167" value="S&#39;authentifier" style="html=1;overflow=block;blockSpacing=1;whiteSpace=wrap;ellipse;fontSize=13;spacing=3.8;strokeColor=#5e5e5e;strokeOpacity=100;rounded=1;absoluteArcSize=1;arcSize=9;strokeWidth=2.3;lucidId=XvitAHHM73nt;" parent="1" vertex="1">
          <mxGeometry x="1250" y="2330" width="120" height="90" as="geometry" />
        </mxCell>
        <mxCell id="oR9qkToTt6fAtuaVTWsN-168" value="&amp;lt;&amp;lt;extend&amp;gt;&amp;gt;" style="edgeStyle=none;rounded=0;orthogonalLoop=1;jettySize=auto;html=1;exitX=0.5;exitY=1;exitDx=0;exitDy=0;entryX=1;entryY=0;entryDx=0;entryDy=0;fontSize=14;endArrow=classic;endFill=1;dashed=1;" parent="1" source="oR9qkToTt6fAtuaVTWsN-169" target="oR9qkToTt6fAtuaVTWsN-167" edge="1">
          <mxGeometry relative="1" as="geometry" />
        </mxCell>
        <mxCell id="oR9qkToTt6fAtuaVTWsN-169" value="Deconnecter" style="html=1;overflow=block;blockSpacing=1;whiteSpace=wrap;ellipse;fontSize=13;spacing=3.8;strokeColor=#5e5e5e;strokeOpacity=100;rounded=1;absoluteArcSize=1;arcSize=9;strokeWidth=2.3;lucidId=XvitmW9DInrr;" parent="1" vertex="1">
          <mxGeometry x="1390" y="2170" width="120" height="90" as="geometry" />
        </mxCell>
        <mxCell id="oR9qkToTt6fAtuaVTWsN-171" value="S&#39;authentifier" style="html=1;overflow=block;blockSpacing=1;whiteSpace=wrap;ellipse;fontSize=13;spacing=3.8;strokeColor=#5e5e5e;strokeOpacity=100;rounded=1;absoluteArcSize=1;arcSize=9;strokeWidth=2.3;lucidId=XvitAHHM73nt;" parent="1" vertex="1">
          <mxGeometry x="1290" y="3620" width="120" height="90" as="geometry" />
        </mxCell>
        <mxCell id="oR9qkToTt6fAtuaVTWsN-172" value="&amp;lt;&amp;lt;extend&amp;gt;&amp;gt;" style="edgeStyle=none;rounded=0;orthogonalLoop=1;jettySize=auto;html=1;exitX=0.5;exitY=1;exitDx=0;exitDy=0;entryX=1;entryY=0;entryDx=0;entryDy=0;fontSize=14;endArrow=classic;endFill=1;dashed=1;" parent="1" source="oR9qkToTt6fAtuaVTWsN-173" target="oR9qkToTt6fAtuaVTWsN-171" edge="1">
          <mxGeometry relative="1" as="geometry" />
        </mxCell>
        <mxCell id="oR9qkToTt6fAtuaVTWsN-173" value="Deconnecter" style="html=1;overflow=block;blockSpacing=1;whiteSpace=wrap;ellipse;fontSize=13;spacing=3.8;strokeColor=#5e5e5e;strokeOpacity=100;rounded=1;absoluteArcSize=1;arcSize=9;strokeWidth=2.3;lucidId=XvitmW9DInrr;" parent="1" vertex="1">
          <mxGeometry x="1430" y="3460" width="120" height="90" as="geometry" />
        </mxCell>
        <mxCell id="oR9qkToTt6fAtuaVTWsN-201" value="&#xa;&amp;lt;&amp;lt;extend&amp;gt;&amp;gt;&#xa;&#xa;" style="edgeStyle=none;rounded=0;orthogonalLoop=1;jettySize=auto;html=1;exitX=0.5;exitY=1;exitDx=0;exitDy=0;entryX=1;entryY=0;entryDx=0;entryDy=0;dashed=1;fontSize=18;endArrow=classic;endFill=1;" parent="1" source="oR9qkToTt6fAtuaVTWsN-197" target="vN8HBcDRqM89FRdapi-8-1" edge="1">
          <mxGeometry relative="1" as="geometry" />
        </mxCell>
        <mxCell id="oR9qkToTt6fAtuaVTWsN-197" value="Selon Age" style="ellipse;whiteSpace=wrap;html=1;fontSize=24;" parent="1" vertex="1">
          <mxGeometry x="775" y="1840" width="120" height="80" as="geometry" />
        </mxCell>
        <mxCell id="oR9qkToTt6fAtuaVTWsN-200" value="&amp;lt;&amp;lt;extend&amp;gt;&amp;gt;" style="edgeStyle=none;rounded=0;orthogonalLoop=1;jettySize=auto;html=1;exitX=0.5;exitY=1;exitDx=0;exitDy=0;entryX=0.406;entryY=-0.033;entryDx=0;entryDy=0;entryPerimeter=0;fontSize=18;endArrow=classic;endFill=1;dashed=1;" parent="1" source="oR9qkToTt6fAtuaVTWsN-198" target="vN8HBcDRqM89FRdapi-8-1" edge="1">
          <mxGeometry relative="1" as="geometry" />
        </mxCell>
        <mxCell id="oR9qkToTt6fAtuaVTWsN-198" value="Selon Region" style="ellipse;whiteSpace=wrap;html=1;fontSize=24;" parent="1" vertex="1">
          <mxGeometry x="574" y="1820" width="160" height="100" as="geometry" />
        </mxCell>
        <mxCell id="oR9qkToTt6fAtuaVTWsN-202" value="&amp;lt;&amp;lt;extend&amp;gt;&amp;gt;" style="edgeStyle=none;rounded=0;orthogonalLoop=1;jettySize=auto;html=1;exitX=0;exitY=1;exitDx=0;exitDy=0;entryX=1;entryY=0.5;entryDx=0;entryDy=0;dashed=1;fontSize=18;endArrow=classic;endFill=1;" parent="1" source="oR9qkToTt6fAtuaVTWsN-199" target="vN8HBcDRqM89FRdapi-8-1" edge="1">
          <mxGeometry relative="1" as="geometry" />
        </mxCell>
        <mxCell id="oR9qkToTt6fAtuaVTWsN-199" value="&lt;div&gt;Selon &lt;font style=&quot;font-size: 24px;&quot;&gt;Mois&lt;/font&gt;&lt;/div&gt;&lt;div&gt;&lt;font style=&quot;font-size: 24px;&quot;&gt;&lt;br&gt;&lt;/font&gt;&lt;/div&gt;" style="ellipse;whiteSpace=wrap;html=1;fontSize=24;" parent="1" vertex="1">
          <mxGeometry x="940" y="1920" width="150" height="90" as="geometry" />
        </mxCell>
        <mxCell id="oR9qkToTt6fAtuaVTWsN-218" value="&amp;lt;&amp;lt;include&amp;gt;&amp;gt;" style="edgeStyle=none;rounded=0;orthogonalLoop=1;jettySize=auto;html=1;exitX=1;exitY=0.5;exitDx=0;exitDy=0;entryX=0;entryY=0.5;entryDx=0;entryDy=0;fontSize=18;endArrow=classic;endFill=1;dashed=1;" parent="1" source="vN8HBcDRqM89FRdapi-8-49" target="oR9qkToTt6fAtuaVTWsN-164" edge="1">
          <mxGeometry relative="1" as="geometry">
            <mxPoint x="702.43" y="1439.9999999999995" as="sourcePoint" />
            <mxPoint x="1090.0035931288073" y="1615.6801948466054" as="targetPoint" />
          </mxGeometry>
        </mxCell>
        <mxCell id="oR9qkToTt6fAtuaVTWsN-224" style="edgeStyle=none;rounded=0;orthogonalLoop=1;jettySize=auto;html=1;exitX=0;exitY=0.5;exitDx=0;exitDy=0;entryX=1;entryY=0.5;entryDx=0;entryDy=0;fontSize=18;endArrow=block;endFill=0;" parent="1" source="oR9qkToTt6fAtuaVTWsN-219" target="vN8HBcDRqM89FRdapi-8-26" edge="1">
          <mxGeometry relative="1" as="geometry" />
        </mxCell>
        <mxCell id="oR9qkToTt6fAtuaVTWsN-219" value="Supprimer le profil" style="html=1;overflow=block;blockSpacing=1;whiteSpace=wrap;ellipse;fontSize=13;spacing=3.8;strokeColor=#5e5e5e;strokeOpacity=100;rounded=1;absoluteArcSize=1;arcSize=9;strokeWidth=2.3;lucidId=jtitNFk_JNwB;" parent="1" vertex="1">
          <mxGeometry x="635.5" y="320" width="120" height="90" as="geometry" />
        </mxCell>
        <mxCell id="kNtf1P3-DXDfk0lgMbVt-5" style="edgeStyle=none;rounded=0;orthogonalLoop=1;jettySize=auto;html=1;exitX=0;exitY=0.5;exitDx=0;exitDy=0;entryX=1.006;entryY=0.315;entryDx=0;entryDy=0;entryPerimeter=0;fontSize=14;endArrow=block;endFill=0;" parent="1" source="kNtf1P3-DXDfk0lgMbVt-1" target="vN8HBcDRqM89FRdapi-8-27" edge="1">
          <mxGeometry relative="1" as="geometry" />
        </mxCell>
        <mxCell id="kNtf1P3-DXDfk0lgMbVt-1" value="Consulter Eventement dans la&amp;nbsp; liste favoris " style="html=1;overflow=block;blockSpacing=1;whiteSpace=wrap;ellipse;fontSize=13;spacing=3.8;strokeColor=#5e5e5e;strokeOpacity=100;rounded=1;absoluteArcSize=1;arcSize=9;strokeWidth=2.3;lucidId=atit3Y5sFF7p;" parent="1" vertex="1">
          <mxGeometry x="512.5" y="440" width="165" height="70" as="geometry" />
        </mxCell>
        <mxCell id="kNtf1P3-DXDfk0lgMbVt-6" style="edgeStyle=none;rounded=0;orthogonalLoop=1;jettySize=auto;html=1;exitX=0;exitY=0.5;exitDx=0;exitDy=0;fontSize=14;endArrow=block;endFill=0;" parent="1" source="kNtf1P3-DXDfk0lgMbVt-2" target="vN8HBcDRqM89FRdapi-8-27" edge="1">
          <mxGeometry relative="1" as="geometry" />
        </mxCell>
        <mxCell id="kNtf1P3-DXDfk0lgMbVt-2" value="Consulter l&#39;historique des evenemts reservÃ©" style="html=1;overflow=block;blockSpacing=1;whiteSpace=wrap;ellipse;fontSize=13;spacing=3.8;strokeColor=#5e5e5e;strokeOpacity=100;rounded=1;absoluteArcSize=1;arcSize=9;strokeWidth=2.3;lucidId=atit3Y5sFF7p;" parent="1" vertex="1">
          <mxGeometry x="505" y="510" width="165" height="70" as="geometry" />
        </mxCell>
        <mxCell id="kNtf1P3-DXDfk0lgMbVt-7" style="edgeStyle=none;rounded=0;orthogonalLoop=1;jettySize=auto;html=1;entryX=0.5;entryY=0;entryDx=0;entryDy=0;dashed=1;fontSize=14;endArrow=classic;endFill=1;exitX=0.988;exitY=0.371;exitDx=0;exitDy=0;exitPerimeter=0;" parent="1" source="kNtf1P3-DXDfk0lgMbVt-2" edge="1">
          <mxGeometry relative="1" as="geometry">
            <Array as="points">
              <mxPoint x="1050" y="530" />
            </Array>
            <mxPoint x="687.4999999999986" y="485" as="sourcePoint" />
            <mxPoint x="1106" y="910" as="targetPoint" />
          </mxGeometry>
        </mxCell>
        <mxCell id="kNtf1P3-DXDfk0lgMbVt-8" value="&amp;lt;&amp;lt;include&amp;gt;&amp;gt;" style="edgeLabel;html=1;align=center;verticalAlign=middle;resizable=0;points=[];fontSize=14;" parent="kNtf1P3-DXDfk0lgMbVt-7" vertex="1" connectable="0">
          <mxGeometry x="-0.0579" y="1" relative="1" as="geometry">
            <mxPoint as="offset" />
          </mxGeometry>
        </mxCell>
      </root>
    </mxGraphModel>
  </diagram>
</mxfile>
